<?xml version="1.0" encoding="UTF-8"?>
<svg id="Layer_2" data-name="Layer 2" xmlns="http://www.w3.org/2000/svg" viewBox="0 0 371.68 245.44">
  <defs>
    <style>
      .cls-1 {
        fill: #fbf7ef;
      }

      .cls-2 {
        fill: #f6f3ea;
      }

      .cls-3 {
        fill: #3b3835;
      }

      .cls-4 {
        fill: #e4e3dd;
      }

      .cls-5 {
        fill: #84827c;
      }

      .cls-6 {
        fill: #2b2926;
      }
    </style>
  </defs>
  <g id="Layer_1-2" data-name="Layer 1">
    <path class="cls-1" d="M137.37,29.26c.04-5.53,3.51-10.6,6.06-15.28.56-.43,2.32-.9,2.2-1.95,1.84.45,2.02-1.51,3.03-2.07,13.42-7.46,30.56-5.97,39.9,7.29,7.52,10.68,3.88,24.75-5.02,33.48l3.29,9.03-10.27-4.87c-9.41,3.2-19.45,2.7-27.62-3.21-6.76-4.9-11.63-13.42-11.57-22.42ZM169.06,36.66c1.36-7.83,5.32-22.09-2.83-21.36-6.7.6-3.14,13.35-1.65,21.02.26,1.33,1.65,1.82,2.54,1.79.57-.02,1.75-.35,1.94-1.45ZM165.71,40.89c-2.59.85-3.21,3.34-2.24,5.01.91,1.57,2.75,1.97,4.31,1.49,1.92-.59,3.34-2.33,2.46-4.55-.51-1.29-2.32-2.68-4.53-1.96Z"/>
    <path class="cls-1" d="M64.37,171.74c.36-2.42,1.65-4.52,1.11-6.96,4.33-3.9.3,6.95-1.11,6.96Z"/>
    <path class="cls-6" d="M332.63,54.03l.15-1.18c.47.05,1.05,0,1.36.16.66.36.58.79-.03,1.01-.43.16-.9-.03-1.48,0Z"/>
    <path class="cls-2" d="M324.43,81.04c.57,1.12-.98,2.97-.2,3.95l2.12,2.67c.6.76-2.05,2.42-1.86,3.7,1.14,2.51,4.9.22,6.53-1.59-1.61-1.45-3.85-3.13-4.5-5.84-.37-1.57,1.96-2.11,2.9-3.57.41-.71-.95-.79-1.41-.97-.93-.36-1.66.66-3.58,1.65,1.57-1,1.61-4.58,4.83-3.81,2.02.48,4.31,1.4,5.15,4.22,2.26,7.6-3.31,14.62-10.61,16.79-.94.9-.35,4.1.65,4.96,1.68,1.44,5.97.71,7.08,2.94,1.98,3.97,5.79,7.31,8.94,9.81-.93,6.12-6.29,10.65-9.13,15.61l-5.05,8.83c-2.75,4.81-3.8,10.51-8.97,14.2-6.06-5.75-3.69-17.61.31-24.38,3.2-5.41-6.08-13.32-4.9-15.4l2.73-4.81c-6.55,2.23-12.74,6.17-19.62,4.53-3.16-1.44-4.08-7.36-4.26-10.39,4.35,1.39,9.83-.7,12.5-5.67-4.62,1.21-8.06,3.46-12.5,5.67-2.82-.92-2.19-4.19-3.98-6-.34-.35-.6-.78-.97-1.1-.02-.33,0-.67,0-1,.04-2.85-3.63-1.93-3.09-5.45.5-3.24,4.64-3.31,5.09-6.55,1.43-10.37-4.02-13.38,3.65-26.16.82,4.4,2.22,7.57,4.56,10.92-2.1,1.28-4.43-.87-5.58,2.35l11.26,2.42c3.48.75,5.36-.09,8.27,2.25,4.86,3.92,6.72,8.52,7.29,15.92,2.38-4.71,2.55-8.26,6.34-10.69ZM297.87,78.98c2.51.4,3.29,2.19,5.11,1.02-2.26-3.57-6.24-5.64-10.72-4.09,1.69,3.49,2.58,6.37,2.6,9.81,3.23-.92,2.6-3.91,3.01-6.74Z"/>
    <path class="cls-6" d="M174.63,71.03h-2l.28-10c.03-.96-.27-1.63-.79-2.08-.39-.34-.93-.27-1.49-.03s-1.27.07-1.88.1c-.56.1-1.71.74-1.74,1.9l-.46,19.09c-3.99,1.39.17-17.23-1.22-20.72-.69-.5-2.06-.3-2.58-.27-.31.02-.82,0-1.18-.02l-1.94-.09-1,.12c-.13-1.05-.88-1.21-.99-.44-.1.7,0,1.14-.01,1.44l-1.62-.32c-1.55-5.69-10.45-3.57-18.47-17.27-2.62-4.48-1.91-8.8-1.77-13.17h1.6c-.06,8.99,4.8,17.51,11.57,22.41,8.17,5.92,18.2,6.41,27.62,3.21l10.27,4.87-3.29-9.03c8.91-8.73,12.54-22.8,5.02-33.48-9.33-13.26-26.48-14.75-39.9-7.29l-1.1-.14c8.21-6.81,19.97-8.38,30.78-4.09,8.74,3.47,16.73,12.37,17.89,23.35.93,8.83-4.17,16.63-10.04,22.7l6.38,13.36-18.28-7.04c-.56,5.37.36,9.05.35,12.94Z"/>
    <path class="cls-3" d="M262.57,90.85c-.61,3.13-.35,6.87,3.22,7.53.11.25.1.51,0,.76-.77,0-1.42-.05-3.01.19,1.32,7.47-.81,14.9-.44,22.77.16,3.38,3.8,5.88,4.33,8.86.06.34-.07.73-.03,1.08,10.92,0-23.89,1.77-15.1,2.63,4.38,1.13,8.09-.35,12.17-.44l15.35-.37c1.84,5.57,3.99,10.78,4.6,16.34-3.06-1.27-3.72-10.69-5.92-14.02l-28.1.61c.16,2.11.9,3.41,1.73,4.48l-.52.72c-.34-1.86-3.73-3.36-3.3-5.89,1.06-6.13,10.6-3.56,12.87-5.31,1.36-1.06.76-5.94-.64-6.92-4.49-3.17-8.63-5.71-11.85-10.11-1.69.86-2.69,2.94-4.81,2.44-.44-.8.85-2.59-.49-3.15-.02-.33.04-.67,0-1,.41-.26.89-.51,1.18-.91.17-.24.11-.65.22-.92,6.63.06,8.95,5.78,15.1,9.05,1.2-9.9,2.91-20.7.39-29.06,1.05-.06,2.1.35,3.05.66Z"/>
    <path class="cls-3" d="M39.67,89.56c-1.03,2.54.72,4.06,2.54,5.83,5.96,5.78,10.53,12.1,12.82,19.82,4.32-5.72,8.41-9.48,12.96-12.93.69.85,1.81,1.41,1.69,2.8-2.14,1.95-8.32,2.94-7.84,6.69.81,6.37,5.75,11.59,7.07,17.9.38,1.81.41,3.93,2.08,4.37.72,1.87.26,3,.27,4.97-1.69-.2-1.9-2.11-2.5-3.78l-8.21-22.66-6.4,5.89c-3.8-9.58-8.61-18.27-16.38-25.06l-9.5,6.85,10.57-10.49c.25-.36.51-.6.84-.2Z"/>
    <path class="cls-5" d="M79.29,220.71c1.2.87,2.28,1.31,4.4,1.64-.87,1.26-2.8-.26-3.24,1.92,3.56.59,5.79-2.06,9.34-.93-10.19,4.26-24.64,5.49-36.91,10.63,4.4,2.3,8.57.42,12.79-.7l23.85-6.34c.8-.04.88,3.1,2.11,2.53-9.33,3.66-13.79-.5-26.54,5.97-4.03,2.04-8.59.67-12.45-.42l.06-2.05,26.75-8.31c-.78-.84-.68-2.3-1.33-2.63-.02-.01-33.93,9.64-38.75,10.22,2.95-4.03,7.71-3.59,11.86-4.66l16.36-4.24c2.1-.54,4.57-1.1,5.25-2.87,2.1-.14,4.56-1.16,6.47.23ZM88.38,229.09c-2.29-.36-3.39.12-2.02,1.18,1.36-.24,2.65-.21,2.02-1.18Z"/>
    <path class="cls-5" d="M57.66,223.08c4.45-1.02-22.77,8.42-22.74,6.29l17.7-6.33c.92-.33,1.34-1.3,2.45-1.15s2.38-.12,2.58,1.2Z"/>
    <path class="cls-3" d="M98.97,239.97c.46-.34.43-.65-.06-.94,2.26.27,4.33-1.99,6.2-1.04,6.7,3.39,14.52,1.31,21.9,3.01l43.2,4.44c-24.2-.76-47.76-3.11-71.24-5.47Z"/>
    <path class="cls-3" d="M35.76,172.06c-1.11.11-1.27,1.2-1.05,2.12-3.65,1.96-8.06,2.69-12.25,4.39-6.81,2.77-9.59,9.27-16.73,13.07,5.42-11.13,16.78-16.45,28.37-18.45-4.01-3.44-8.32-3.77-9.84-7.16,2.55-.39,3.94,1.87,6.02,3.4,1.76,1.3,4.44.84,5.48,2.63Z"/>
    <path class="cls-5" d="M316.72,216c-5.85.54-11.77,1.27-17.53,2.49-2.56.54-3.27.45-6.33-1.19-1.66-.89-6.02.9-6.61-3.06,7.54-.27,14.39.32,21.68-1.87,1.28,1.32.14,1.41-1.3,2.28,3.22.68,6.39.61,9.74-.73.47,1.07.34,1.61.36,2.08Z"/>
    <path class="cls-5" d="M316.75,216.91c5.02-.97,5.87,3.69,11.93,2.91-.49-.98-1.99-.11-2.08-1.82,3.18.49,6.34-.1,8.43,2.42-2.34,1.9-4.93.05-5.39,2.12-1.33-.1-2.76.88-4.94.44,2.23-5.09-14.52,1.23-18.25-.44.7-2.81,3.19-.65,5.26-1.98-3.2-2.22-9.74,2.22-11.07-.52l16.13-3.13ZM319.6,219.63c-2.95-.93-4.62-1.02-6.06,0,2.4.72,4.25.67,6.06,0Z"/>
    <path class="cls-5" d="M27.88,134.76c-6.81-5.13-9.54-13.29-12.41-22.04-1.36-1.34,1.71-.71,2.71-.64,1.39.09,1.55,2.05,2.03,3.27l7.67,19.42Z"/>
    <path class="cls-3" d="M324.7,222.97c2.18.44,3.61-.53,4.94-.44,4.85.36,9.71-1.7,15,.33-3.62,2.85-7.99,1.05-12.05,1.84-6.06,1.18-11.82,1.44-18.01-.07-1.89,1.17-2.3-.32-.77-1.5,3.7.27,7.47.5,10.89-.17Z"/>
    <polygon class="cls-3" points="129.63 81.03 128.63 81.03 129.12 0 129.63 81.03"/>
    <path class="cls-4" d="M158.63,59.03l.03,22.95c0,.69.58,1.17.97,1.05,0,5.56.47,11.28-.52,17.29-3.87-.98-3.53-4.83-3.48-7.29.46,6.88,1.87-16.1,1.82-11.07l.18-21.93c0-.3-.08-.74.01-1.44.11-.77.85-.61.99.44Z"/>
    <path class="cls-4" d="M25.56,161.74c5.29,1.67,9.89,5.08,12.98,9.87-1.21.63-2.03.37-2.78.45-1.04-1.78-3.72-1.33-5.48-2.63-2.08-1.53-3.47-3.79-6.02-3.4-1.55-.48-2.72-1.84-3.83-2.82-.04-1.21-1.73-1.53-1.07-3.45,2.42,1.44,4.4,1.42,6.2,1.98Z"/>
    <path class="cls-5" d="M98.91,239.03c.48.29.52.6.06.94,3.62.36-23.96-1.82-16.16-3.22,4.35,3.38,19.78-2.38,24.41-4.73,1.39,1.66,3.44,1.44,3.72,4.04-6.04-.52-10.87-.22-17.09,1.8,1.36,2.24,3.48.83,5.05,1.18Z"/>
    <path class="cls-3" d="M45.45,139.86l-1.05-.09c-.2-12.5-14.42-38.25-15.81-33.27.16-.56-.15-1.19.54-1.48.49-.21,1.29,0,1.86.67,8.45,9.83,13.77,21.6,14.45,34.17Z"/>
    <path class="cls-5" d="M157.63,60.03l-.18,21.93c.04-5.04-1.36,17.95-1.82,11.07.21-11.11-.47-22.25.38-33.32l1.62.32Z"/>
    <path class="cls-5" d="M174.63,71.03l-.05,27.96c-.87-.13-1.94-.98-1.94-1.89v-26.07s1.99,0,1.99,0Z"/>
    <path class="cls-4" d="M278.63,132.03l1.86-.24c-.25,8.88,5.24,12.11,4.18,18.51-.32-.1-.71.01-1.02-.11-.61-5.56-2.76-10.77-4.6-16.34l-15.35.37c-4.08.1-7.79,1.57-12.17.44-8.79-.86,26.02-2.63,15.1-2.63h12Z"/>
    <path class="cls-4" d="M275.27,29.11c.85,7.61.05,15.28.35,22.92-3.77,1.18-.95-5.63-2.45-12.63-.77-3.6-.93-8.32,2.09-10.29Z"/>
    <path class="cls-3" d="M329.9,188.87c.45.17.93-.22,1.17-.54l11.37,19.76c-5.4-5.68-10.07-12.05-12.54-19.22Z"/>
    <path class="cls-3" d="M42.61,180.2l-16.29,3.57c1.21-2.52,14.49-7.45,16.29-3.57Z"/>
    <path class="cls-5" d="M65.48,164.79c.55,2.44-.75,4.53-1.11,6.96-1.98,0-2.86.51-4.43,2.22.15-1.8.94-3.2,1.41-4.81-2.29.81-2.93,3.02-4.93,2.48.53-2.07,2.31-2.06,2.34-2.93.04-1.25.24-2.31-.75-2.71-1.27,1.73-1.71,3.04-3.25,4.01.78-2.31,1.41-4.03,2.9-5.84.83.57,1.67,1.98,2.47,1.37,1.75-1.34,1.26-3.71,3.35-4.64l-1.11,6.24c1.6-.36,1.95-1.93,3.12-2.35Z"/>
    <path class="cls-5" d="M69.42,163.28c-.42,1.69,1.38,4.37-.42,5.75-1.08-.4-1.49.65-1.41,1.42.05.56-.08,2.27,1.05,1.54-.04.34-.1.7-.18,1.04-.36.52-.83.96-1.42,1.2-.77-.07-1.84-.1-2.29-.83-.27-.44-.44-1.2-.37-1.66,1.41,0,5.44-10.86,1.11-6.96-.25-1.13.92-2.4,1.36-3.23.61,1.4,1.71,1.5,2.58,1.72Z"/>
    <path class="cls-5" d="M81.63,235.03l-.08-1.25,21.71-3.44c-2.69,3.62-6.81,2.09-10.04,3.22-4.11,1.26-7.83,1.51-11.59,1.48Z"/>
    <path class="cls-4" d="M39.67,89.56c-.34-.4-.6-.16-.84.2,1.47-2.89,3.36-5.51,6.61-7.75.49,2.16,1.07,2.98,2.36,4.16-2.85,1.23-4.17,3.8-5.83,6.08-1.33-.68-.69-1.85-.8-2.61-.12-.82-.88-.62-1.49-.08Z"/>
    <path class="cls-4" d="M267.63,197.03v2c-1.25.73-.49,2.12-.73,3.15-.8,3.58-2.5,6.94-6.27,6.54-.09-3.02,2.25-5.02,3.73-7.87.54-1.04-.16-3.04,1.02-3.71.53-.3,1.48-.11,2.24-.11Z"/>
    <path class="cls-3" d="M13.54,210.05l-1.8.15c1.51-6.89,5.3-12.26,10.65-17.4.54-.52.15-2.75,1.72-1.78.5.31.61.74.55,1.48.17-2.11-13.76,16.31-11.12,17.55Z"/>
    <path class="cls-3" d="M334.53,154.03c.11.42-.7.88-.8,1.54-.22,1.53.7-.39,1.92-.25-.56,2.22-1.95,5.45-2.02,7.75l-1-.03c1.21-6.41-1.85-13.09,2.23-19.68.6,4.04-1.18,7.26-.32,10.68Z"/>
    <path class="cls-3" d="M25.52,160.77l.04.97c-1.8-.57-3.78-.54-6.2-1.98-.66,1.93,1.03,2.24,1.07,3.45-2.95-2.61-6.28-3.99-10.39-5.04,5.73-1.64,10.69.93,15.49,2.6Z"/>
    <path class="cls-5" d="M275.63,130.03h-1c.98-6.58,1.44-14,6.6-18.97-2.57,6.59-5.59,12.33-5.6,18.97Z"/>
    <path class="cls-5" d="M128.63,81.03h1c.04,6.01,3.01,12.3-.19,18.9-1.87-6.79-.29-12.85-.81-18.9Z"/>
    <path class="cls-5" d="M251.53,209.7c-1.46-6.29-1.63-12.05.1-18.58,1.61,6.31,1.79,11.99-.1,18.58Z"/>
    <path class="cls-3" d="M10.89,106.08l-.11-1.1c4.74-1.93,9.99-5.29,15.68-1.56-6.1.31-10.69.85-15.57,2.66Z"/>
    <path class="cls-3" d="M147.56,9.82l1.1.14c-1.01.56-1.19,2.52-3.03,2.07-.2-1.73,1.06-1.5,1.93-2.21Z"/>
    <path class="cls-3" d="M143.43,13.98c.62-.42,1.23-2.19,2.2-1.95.12,1.04-1.64,1.52-2.2,1.95Z"/>
    <path class="cls-3" d="M143.43,13.98c-2.55,4.69-6.02,9.75-6.06,15.28h-1.6c.16-4.88,4.01-12.84,7.66-15.28Z"/>
    <path class="cls-3" d="M346.36,192.92c-1.78-2.44-4.35-5.14-7.18-2.46-.95-2.01-3.42-1.75-5.01-4.26,3.72-.31,14.73,2.44,12.19,6.71Z"/>
    <path class="cls-6" d="M273.63,11.03v14c-.63,3.26-3.11-20.29-1.4-18.55,2.28,1.19,1.4,3.2,1.4,4.55Z"/>
    <path class="cls-4" d="M316.72,216l.03.91-16.13,3.13c-.13-.26-.79-.35-1.23-.6-.46-.27-.94-.38-.21-.94,5.76-1.22,11.68-1.95,17.53-2.49Z"/>
    <path class="cls-5" d="M265.78,99.13c.11-.25.12-.5,0-.76,4.04,2.6,9.38,1.56,13.12,5.53-5.03-.23-9.47-2.49-13.12-4.77Z"/>
    <path class="cls-5" d="M335.65,155.31c-1.21-.13-2.14,1.78-1.92.25.09-.66.9-1.11.8-1.54,2.85-3.37,2.87-8.4,6.95-12.07-.31,4.94-3.36,9.4-5.83,13.36Z"/>
    <path class="cls-5" d="M170.63,58.93l-.02,11.2c0,.9-1.01,1.66-1.93,1.91l.08-13.01c.61-.03,1.3.15,1.88-.1Z"/>
    <path class="cls-3" d="M159.63,83.03c-.4.12-.97-.36-.97-1.05l-.03-22.95,1-.12v24.12Z"/>
    <path class="cls-3" d="M52.68,232.98l-.06,2.05c-3.91-1.11-8.29,1.74-12.83-1.11,4.66-2,8.84-.36,12.89-.94Z"/>
    <path class="cls-3" d="M44.61,153.16c0,.61.22,1.27.17,1.87-.83-.31-1.43.57-1.17,1.45.11.35.46.68,1.01.55.04.26.79.23,1.01.49.27.32-.06,1.57-.47,1.41-.65-.24-1.2-.88-1.76-.82-1.29-2.33-4.64-3.97-4.42-7.16,2.49,1.55,3.78,3.28,5.62,2.21Z"/>
    <path class="cls-3" d="M81.54,233.78l.08,1.25c-4.77-.04-8.35,3.7-13.15,1.43,4.49-.81,8.63-2.36,13.06-2.68Z"/>
    <path class="cls-3" d="M261.42,72.06c-1.15,2.95-2.86,5.77-5.79,7.12-.59-.05-1.2-.01-1.78-.17,2.28-2.29,5.33-5.11,6.83-7.93.16.39.4.73.74.98Z"/>
    <path class="cls-4" d="M275.63,18.03c.42,1.8-.33,4.14,0,6-.75.18-1.19,1-2,1v-14h1c-.02,2.47-.54,4.99,1,7Z"/>
    <path class="cls-5" d="M236.56,189.03c.01-.31.04-.72.03-1,3.73,1.09,8.25.18,11.55,3.55-4.6.8-8.11-1.49-11.58-2.54Z"/>
    <path class="cls-3" d="M161.57,59.01c.36.02.87.03,1.18.02l-.64,20.09-.54-20.11Z"/>
    <path class="cls-5" d="M276.63,18.03h-1c-1.54-2.01-1.02-4.53-1-7,.13-1.06-.89-2.78,1.58-3.4.89,3.67.25,7.03.42,10.4Z"/>
    <path class="cls-5" d="M10.89,106.08c-2.64,2.77-3.38,6.7-7,9.2.19-4.27,6.53-6.44,5.68-10.44l1.21.14.11,1.1Z"/>
    <path class="cls-3" d="M286.63,96.03c-1.51-.11-3.1-.66-3.87-1.72-.84-1.14-2.01-3.61-.7-4.69,2.26-1.85,3.89-3.7,5.57-5.59h1c-.45,3.24-4.58,3.31-5.09,6.55-.55,3.52,3.12,2.6,3.09,5.45Z"/>
    <path class="cls-5" d="M143.57,236.37c-2.02,2.84-5.88,3.38-9.2,2.12,2.82-2.03,5.23-2,9.2-2.12Z"/>
    <path class="cls-4" d="M271.63,196.03v3c-1.07,1.05-1.18,2.58-1.04,4.02-.31-.27-.86-.5-1.04-.91s.18-1.03.08-1.58c-.07-.42-.5-.53-1-.53v-4c.84-.1,1.58-.45,2.21-1,.39-.09.83.62.79,1Z"/>
    <path class="cls-4" d="M268.63,202.15h-.91c-.05-.38-.09-.91-.08-1.57,0-.39.47-.55.99-.55v2.12Z"/>
    <path class="cls-6" d="M278.63,132.03h-12c-.04-.34.09-.74.03-1.08.99-.02,1.98.08,2.97.08h2c1.11,0,2.24-.13,3-1h1c1.37,0,2.65.64,3,2Z"/>
    <path class="cls-3" d="M50.63,131.03h-1c-.98-2-1.77-4.99-.58-8.06,1.65,2.46,1.88,5.25,1.58,8.06Z"/>
    <path class="cls-3" d="M38.49,150.21c-2.8-2.23-4.72-5.04-5.58-8.36,2.84,2.57,4.06,5.34,5.58,8.36Z"/>
    <path class="cls-5" d="M270.62,192.45l.22,2.58c-.63.55-1.37.9-2.21,1-.46-1.12-.8-2.3-.94-3.5.88.07,2.05.03,2.93-.08Z"/>
    <path class="cls-3" d="M287.14,79.78c-.55.28-2.51.22-2.98-.41-.34-.46.89-1.57.73-2.16.63-.02,1.36-.08,1.95.21.97.49.21,1.62.3,2.36Z"/>
    <path class="cls-5" d="M271.63,126.03h-1c-1.76-1.39-.98-3.64.61-6.01.8,2.04.39,3.98.39,6.01Z"/>
    <path class="cls-3" d="M32.14,141.5c-2.1-1.25-2.38-2.75-2.45-4.5,2-.24,3.38,2.14,2.45,4.5Z"/>
    <path class="cls-3" d="M271.63,131.03h-2c.43-1.65,1.04-3.28,1-5h1v5Z"/>
    <path class="cls-5" d="M59.1,163.01c-1.01-.99-.79-2.71,1.06-3.95,1.01.99.79,2.71-1.06,3.95Z"/>
    <path class="cls-6" d="M29.86,227.24c.45-.49,1.29-.2,2.21-.18.64.01.61.64.05,1.03-.74.51-.76.89-1.13.99-.77.2-2.17-.71-1.13-1.84Z"/>
    <path class="cls-5" d="M64.18,175.23c.66-.27.78,2.59-.07,2.82-.69.19-1.34-.04-1.49-.54-.24-.8.26-1.75,1.56-2.27Z"/>
    <rect class="cls-5" x="267.63" y="197.03" width="1" height="2"/>
    <path class="cls-3" d="M287.6,98.13l-1-.1c-.07-.31.04-.68.03-1,.37.32.63.75.97,1.1Z"/>
    <circle class="cls-5" cx="3.13" cy="116.53" r=".5"/>
    <path class="cls-2" d="M332.78,52.85l-.15,1.18c-1.03-.11-2.31.52-3.09-.64,1.44-.71,2.38-.24,3.24-.54Z"/>
    <path class="cls-2" d="M336.36,48c-.34.63-.69,1.31-.78,2.03-.55,4.44,3.14,6.94,4.29,12.13-3.41-2.1-6.83-4.66-7.25-8.13.59-.04,1.06.15,1.48,0,.61-.22.69-.65.03-1.01-.31-.17-.89-.11-1.36-.16-2.13-5.45-8.96-7.89-15.1-7.95l5.77,5.12c-3.36-.2-5.66-2.06-9.29-1.26,5.95,2.67,11.45,5.98,15.38,11.13-3.73-.43-4.73-4.07-8.18-2.79,2.24,2.27,5.33,3.38,5.03,7.34l-17.46-13.64c-.37,4.45,3.99,9,1.72,10.74-1.45,1.11-5.81-7.86-7.75-9.28-1.19,3.74,1.39,6.35-.34,10.19-2.57-3.38-3.44-6.73-4.71-10.66-1.79,1.44-1.33,3.34-3,4.29-.66-1.38-1.53-4.85-.02-5.86,12.35-8.28,28.82-10.55,41.55-2.23Z"/>
    <path class="cls-4" d="M349.53,94.51c4.03,3.46,10.4,3.78,9.02,8.83-4.82,0-9.01-3.09-9.02-8.83Z"/>
    <path class="cls-4" d="M335.58,50.03c.09-.72.44-1.41.78-2.03,2.69,1.76,5.88,3.39,7.2,7.05-2.89-2.05-4.64-4.84-7.97-5.01Z"/>
    <path class="cls-5" d="M356.41,114.49c-1.43-2.82-.43-5.38-2.72-7.29,2.55,1.37,5.93,3.85,2.72,7.29Z"/>
    <path class="cls-4" d="M349.51,94.03c-1.8-1.1-3.34-3.24-2.45-5.03l2.45,5.03Z"/>
    <path class="cls-5" d="M284.92,58.74l5.62-4.67c-1.3,1.82-1.83,3.68-5.62,4.67Z"/>
    <circle class="cls-1" cx="277.13" cy="65.53" r=".5"/>
    <circle class="cls-5" cx="292.61" cy="53.05" r=".85"/>
    <circle class="cls-5" cx="351.63" cy="106.03" r=".86"/>
    <path class="cls-2" d="M45.78,76.53c3.15-1.24,4.96-1.97,6.41.42,1.83-2.67,1.68-5.73,3.08-8.77,1.26,1.07.86,2.37,1.69,3.65,1.96-1.15,2.11-3.02,3.8-5.54,2.43,3.33,5.19,4.41,8.51,6.24.95.52,1.58-1.35,1.65-2.2.13-1.48-2-1.01-3.29-1.53-6.71-2.65-10.06-11.89-6.84-18.18,1.27-2.49,3.32-3.75,5.35-3.88,7.19-.46,6.86,10.81,8.46,16.43,1.41-.96,3.04-1.99,3.97-3.21,3.23-12.52,4.45-14.12,13.81-23.21.05,3.47-1.61,5.16-1.09,7.81,4.01-5.38,8.15-10.39,10.79-16.81,2.2,4.51,3.34,8.18,4.5,12.51,1.87,6.96-7.34,14.31,1.4,24.74.83.99,1.31,2.44.85,3.49-.37.84-1.64,1.88-2.84,2.01-3.26.36-2.51,4.39-4.18,5.91-2.91,2.64-7.46-1.42-10.15-3.22-1.07-.72-1.82,1.82-1.14,2.15,2.98,1.47,6.32,2.39,9.62,4.34-3.75,3.88-5.73,7.5-7.01,12.24-7.91-.88-13.52-4.53-19.34-8.7,2.28,7.97.28,9.53-4.03,16.01l-23.98-22.7ZM105.15,47.05c-2.82-5.69-9.39-4.03-12.38-.04,4.41-1.55,7.64.14,12.38.04ZM67.73,57.62c2.99-1.19,3.12-3.38,1.69-5.9-.75-1.31-2.11-3.52-4.66-1.58,1.65.61,2.75,1.79,3.37,3.15s-.15,2.38-.4,4.33ZM99.65,60.47c1.9-3.81,2.26-6.89,3.47-10.75-3.46-.46-6.34.79-8.61,3.03,1.37.47,3.9-.38,4.02,1.05.21,2.68-1.61,5.13,1.13,6.67ZM70.66,64.26c.07-3.77-2.41-3.77-3.2-6.23-1.61,0-2.04,1.02-2.54,1.66-.45.58-.48,2.58.22,2.7,2.31-.6,3.34,1.12,5.52,1.88ZM73.74,82.03c0-.61-.5-1.11-1.11-1.11s-1.11.5-1.11,1.11.5,1.11,1.11,1.11,1.11-.5,1.11-1.11Z"/>
    <path class="cls-1" d="M213,89.86c-2.8,2.82-12.62-.52-15.2,2.26,5,2.44,8.96-.23,14.43.62l-5.17,18.4c-.24.84-.32,3.66.59,3.64,4.48-.1,7.98-2.74,11.73-4.67,3,8.65,6.9,5.3,9.49,9.49,1.04,1.68-.14,3.08-.06,4.46.46,7.48-.54,14.88,2.08,23.35-8.13.09-15.43,1.05-21.17-1.41-1.35-6.89-4.83-13.17-8.61-19.55-.31,5.5,2,9.51,2.51,14.28.8,1.66,1.03,3.25,2.12,4.25l-.47,1.42c-2.22,6.74-9.31-25.7-8.92-27.3-3.61-1.71.38,8.93-3,5.22-.15-3.66-.86-7.38-1.75-11.37-.95-4.28,1.44-8.26-.94-12.73-2.04,3.66-.05,7.39-.8,10.87l-1.23,5.64c-.66,3.06,2.82,5.76,3.99,8.32.97,2.14,2.31,4.32,2.99,6.98.31,1.2-1.65,2-2.43,3.19,2.92,2.43,3.34,6.39,1.27,8.8l-1.02-.25c-.21-1.74-.05-3.58-1.51-4.7-1.85-1.41-1-3.89-.54-5.85.93-.25,1.01-.79.68-1.09-.74-.68-1.35-1.05-1.62-1.43-.13-2.39-1.61-4.77-3.92-5.89-.25,1.79,1,2.8,2.29,4.1l-6.63-1.31c1.53,2.32,3.97,1.56,5.53,2.2.19,1.06.88,1.93,1.81,2.45l.75,1.02c-.71.47-1.86.8-2.92.17-7.9-4.64-11.43-1.5-17.67-2.41.67-.87,1.69-2.18,2.26-3.55,5.14-12.24,10.64-24.03,18.02-34.9,6.16,5.1-1.83-3.96,18.91-6.5,1.44-.18,2.59.04,3.33.92.63.75.89,1.82.8,2.85ZM206.76,99.43c.31-1.46-1.33-1.68-1.67-1.41.31-.24-4.59,15.32-1.35,15.89l3.02-14.48ZM195.53,118.69c1.89-6.24,1.71-11.61.1-17.57-1.72,6.18-1.55,11.61-.1,17.57Z"/>
    <path class="cls-2" d="M136.63,164.03c-2.76.04-2.2,4.6-1.62,7.33.13.63-.1,1.33-.38,2.67l.08,19.97c-2.02.27-5.18-.45-5.19-2.85l-.07-32.67,101.1-.06-.2,48.73-88.67.12c-2.57.11-4.08-1.66-3.78-3.79,6.22-1.3,19.8,1.41,22.77-2.49l.11-34.96c0-1.96-2.69-2.3-4.12-2.29l-20.03.28ZM166.62,169.89v2.15s.14,31.06.14,31.06c7.89.63,15.17.29,22.89.1,2.39-.06,3.5-2.06,3.5-4.32l-.14-34.27c-8.28-1.33-16.32-1.41-24.49-.63-2.13.2-2.09,3.96-1.89,5.91ZM198.86,169.27l-.24,3.76c-.62,9.86-.46,19.74.59,30.15,9.16.09,17.29.77,25.83-.35,1-13.1.51-25.42.03-38.33l-22.51-.95c-1.37-.06-2.91.85-3.37,1.52-.58.83-.54,2.29-.34,4.2Z"/>
    <path class="cls-2" d="M246.44,43.69c2.03-1.01,3.86,1.9,3.64,4.15-.42,4.28,1.99,7.61,2.28,11.42,1.43,18.52-5.31,31.04-23.7,35.74-5.47,1.4-8.87-3.24-11.37-6.67-6.05-8.3-7.12-17-6.3-26.92.56-6.77,1.4-12.35,5.89-18.1,1.28-1.64,2.23-5.87,5.72-4.6,3.27,1.19,5.05,4.81,8.13,7.17.59-.61-.53-1.55.21-2.99,3.67,1.83,6.22,4.62,9.42,7.24.96-1.87-.9-2.52-.48-4.13,3.02,1.17,4.42,3.64,7.15,6.19,1.34-2.58-.03-4.55-.61-8.5ZM223.71,54.42c-2.97-3.78-7.51-3.54-10.16-.27,3.57-.2,6.7,1.84,10.16.27ZM247.47,58.91c-2.65-4.36-7.79-5.17-11.28-2.28,4.07,1.97,7.49,1.67,11.28,2.28ZM219.57,65.32c1.62.05,3.16-2.68,2.92-3.84-.61-2.88-5.61-4.2-8.15-2.25-.7.54-1.99,1.4-.99,2.97,3.48-1.33,4.74.98,6.23,3.12ZM241.27,65.11c1.87-1.11,3.32,1.68,5.18.75-1.5-3.12-5.38-5.74-8.8-3.66-2.19,1.33-1.54,5.2-.19,6.98,2.6-.09,1.94-2.96,3.82-4.07ZM223.18,75.96c.39-4.58,1.77-6.88,1.13-9.89-2.33,3.58-4.46,7.62-1.13,9.89ZM236.27,82c-6.63-1.11-11.7-2.26-18.37-2.57,5.4,3.42,12.12,4.8,18.37,2.57Z"/>
    <path class="cls-2" d="M148.63,111.03c-6.37.11-7.73,4.67-15.67,4.61,1.58,5.46,10.35-2.67,15.9-2.96l.11,1.52c-3.44,2.56-8.4,3.01-11.15,6.69,5.63-.3,8.53-4.44,12.69-5.76,1.12-.35,3.85-.31,4.1.91-2.04.54-3.34,2.12-4.85,3.42-2.88,2.47-7.91,2.39-9.79,7.12,4.59-.18,6.59-4.87,9.79-6.56,1.97-1.04,5.13-2.27,7.95-.85-7.19,6.85-15.29,11.27-21.38,18.61-2.99,3.61-8.53,3.99-11.35,6.83-8.91,8.98-13.97,20.86-21.91,31.41-6.61-.33-10.56-14.65-10.99-21.17,5.22-4.9,10.38-8.97,14.99-14.45,5.53-6.58-2.07-15.52,5.15-24.66,2.74-3.47,2.49-9.4,4.44-12.53,3.44-1.12,5.64,4.6,4.06,7.64-1.12,2.17-1.91,4.29-1.29,6.65,3.11,1.84,35.83-14.42,29.19-6.47ZM124.81,129.05c-.61-4.01.19-8.97-4.51-11.02,2.75,5.32,3.13,9.97-.05,14.91l4.56-3.88Z"/>
    <path class="cls-1" d="M242.63,113.03c1.35.56.05,2.35.49,3.15,2.12.5,3.12-1.58,4.81-2.44,3.22,4.4,7.36,6.94,11.85,10.11,1.4.99,2,5.86.64,6.92-2.26,1.76-11.8-.82-12.87,5.31-.44,2.53,2.95,4.03,3.3,5.89,1.3,8.68,5.2,5.28.79,13.86,2.9,2.04,1.12,5.1,1.76,7.11-1.08-.97-7.19,6.71-6.57,8.28.72,1.82.29,4.47,2.89,3.8.19,1.41-1.73,1.25-2.48.85-2.68-1.44-3.53-8.23-3.45-10.85.05-1.71,2.77-2.91,2.66-4.93-1.62-.22-1.31,3.09-2.63,2.99-2.66-.2-1.81-3.62-2.19-5.06-2.81-10.76-2.24-22.25-3.07-34.38.56-2.28-2.41-2.26-1.82-.1l1.96,30.62-.87.07c.02-1.53-.58-3.2-1.18-4.75-.47-1.21-4.03-.77-4.57-1.86-1.59-7.82-.48-16.04-1.58-23.58-.2-1.37.04-2.78.1-4.08l1.1-.32,3.89-.99c1.02-.26,2.31.54,3.44-.22.56-.38.75-1.32.61-1.86-.11-.42-.71-.72-1.24-.82.48-1.95,2.25-3.2,4.24-2.73ZM242.63,117.53c0-.28-.22-.5-.5-.5s-.5.22-.5.5.22.5.5.5.5-.22.5-.5Z"/>
    <path class="cls-2" d="M269.47,181.02c1.85-.46,3.58,2.05,6.26-.08-1.87-1.64-4.17-1.01-5.93-2.08.11-3.82-3.35-6.81-7.09-6.9-1.83-3.62-5.96-5.09-6.61-10.35,3.01,1.08,4.09,2.95,6.54,4.38,3.37,1.95,6.14,5.35,10.23,6.77-1.06-5.11-5.74-6.06-9.17-7.46-1.48-1.39-10.75-9.53-9.6-10.48,3.18-2.63,15.87,11.41,34.93,11.67,4.13.06-4.31-10.7-1.41-11.98,6.74,2.51,9.73,9.03,10.88,15.75l1.18,6.93c-5.02,3.4-7.62,9.67-10.25,15.1-7.02-1-16.27-4.71-19.94-11.27Z"/>
    <path class="cls-2" d="M235.54,213.11c-.05,1.18.81,2.24,1.85,3.01l14.53,10.7-48.33.7c-11.04.16-21.43-.39-32.52-.13l-42.44,1.01c-2.46.06-3.03-2.66-3.33-4.23s-.1-3.29,1.21-2.81l1.97.73c1.19.79,2.56,1.12,3.98,1.11.65,0,1.32-.02,1.96-.02h3.09c2.35.02,4.71.16,7.05.04l2.06-.1,1-.05c2.63-.13,7.01.4,7.17-2.86l4.61-.19v.9c-.81.73-2.58,1.24-1.38,3.31-1.76-4.98,39.02-.02,40.6-3.2.37-.31.71-.66,1-1.04l20-.59c5.62-.17,10.9.37,16.35-1.1-1.58-3.34-4.59-4.26-7.35-4.25v-1.11c2.29,0,4.61-.05,6.91.17ZM207.63,221.53c0-.28-.22-.5-.5-.5s-.5.22-.5.5.22.5.5.5.5-.22.5-.5ZM210.05,224.85c.92.27.79-1.48.16-1.76-.35-.16-.79-1.14-1.14-.9-1.73,1.2,7.29,4.52.99,2.66ZM158.75,225.05l41.82,1.18c6.5-3.58-42.51-2.46-41.82-1.18Z"/>
    <path class="cls-2" d="M283.65,150.19c.3.13.7.02,1.02.11-.79,4.76,1.24,8.79,3.36,14.1-11.7-.38-22.89-5.33-31.18-12.6-3.12-2.73-3.19-7.61-5.48-10.55-.83-1.07-1.58-2.38-1.73-4.48l28.1-.61c2.2,3.33,2.86,12.75,5.92,14.02Z"/>
    <path class="cls-2" d="M79.75,121.88c1.72,4.27,2.63,9.01,2.35,14.23-1.02,19.57-3.32,38.55-6.06,57.96-4.08-.48-6.86-1.35-10.25-2.17-.44-5.7,7.14-18.08,2.66-18.87.09-.34.14-.7.18-1.04.36-.23,1.42.1,2.23-.08,2.09-7.12,1.73-15.9,2.41-23.81l2.44-28.12c.02-.25.07-.57-.01-.81,1.22.64,3.04,1.77,4.05,2.71Z"/>
    <path class="cls-2" d="M313.64,184.02c-8.84,1.38-7.53-18.74-11.35-24.04l.32,15.42c-2.74-3.61-1.85-8.17-3.64-11.96-2.68-5.67-3.62-11.04-2.32-17.48.81-4.02,1.24-9.74,5.24-12.03,1.62,2.25,3.67,5.65,8.33,3.85-.66,13.24-2.23,33.73,3.41,46.23ZM303.83,157.67c.66-5.83-.33-10.64-2.6-15.27-.77,5.68.73,10.22,2.6,15.27Z"/>
    <path class="cls-2" d="M158.63,172.03l-.2,28.16-15.81.18c-1.47.02-1.11-3.59-1.99-4.13,1.21-.71,2.48-.15,3.98.18,1.05.23.48-1.45,1-2.47,1.18-2.31.08-4.54-.3-7.73-.16-1.35.25-3.12-1.09-4.63-.43-.48,2.84-2.89.06-4.79-.47,2.4-1.03,2.63-2.51.38-1.88.35-2.62,2.81-2.7,4.29-.1,2.12,1.51,3.69,3.61,3.98-4.66,1.76-2.02,6.19-2.06,10.8-.76-.36-3.54.27-3.67-1.37-.59-7.46-.35-14.61-.15-21.65,1.27.09,2.49.7,3.93,1.19l17.89-2.38ZM150.69,179.67c-1.55,1.69-.66,4.47.36,5.13.94.6,3.51.74,4.39-.31.72-.86.18-3.4-.08-4.58-.3-1.35-3.29-1.76-4.67-.25ZM156.13,192.69c-.08-2.49-1.4-3.41-2.86-3.16-2.84.49-2.69,7.02-1.05,7.06,1.18.03,2.32.04,3.34-.38.76-.31.62-1.92.57-3.53Z"/>
    <path class="cls-2" d="M104.95,192c1.06-4.37,3.9-7.72,6.29-11.36,2.1-3.21-1.19-8.14.35-11.49,2.48-5.38,6.35-9.57,10.24-14.67l1.42,36.31-18.3,1.21Z"/>
    <path class="cls-2" d="M259.52,90.19c2.52,8.37.81,19.16-.39,29.06-6.15-3.27-8.47-8.98-15.1-9.05,4.82-12.3,7.67-13.17,7.7-28.84,4.16,3.15,4.12,7.55,7.79,8.82Z"/>
    <path class="cls-2" d="M233.04,115.66c-8.57-5.48-4.67-10.65-8.28-15.99,9.39-1.26,16.84-6.56,23.31-13.5,1.74.51,1.21,2.66,1.35,4.53-2.09,9.97-7.58,18.38-16.38,24.96Z"/>
    <path class="cls-2" d="M319.37,189.48c-.67,6.71-.17,12.94,2.1,19.62-4.2.26-7.74-1.53-11.32-3.45l-9.36-5.01c-.77-5.77,1.68-11.93,6.72-15.43l11.86,4.27Z"/>
    <path class="cls-2" d="M190.85,139.36c1.26,1.17.56,2.13-.84,1.1-1.63-.68-2.2-3.29-4.63-1.98,2.66,1.99,5.21,3.43,6.19,6.4l-1.96.16c-7.36-2.85-15.31-1.69-23.11-1.45l-3.23,2.21c-2.17-6.09,6.6-5.9,5.36-12.05,13.25-2.51,13.85-2.22,22.22,5.62Z"/>
    <path class="cls-4" d="M79.75,121.88c-.53-2.83-2.11-3.68-2.87-5.24-.87-1.79,1.06-2.61,1.77-3.32s4.25-.96,4.25.42c-.03,5.8,5.21,8.46,6.66,12.96,2.12,6.56-1.36,14.21.17,20.93-2.24,1.7-2.84,3.08-4.95,4.2-.08-6.51,1.03-12.29,1.85-18.68-5.15.84-1.7-9.18-6.88-11.27Z"/>
    <path class="cls-2" d="M231.69,119.65l-1.1.32c-1.61-6.88-6.17-2.47-8.56-9.56-2.2-6.52-9.17,2.88-13.82,1.61l7.02-21.1c-.26,3.02,3.88,4.19,4.67,6.38,2.49,6.93,4.63,13.29,10.19,18.36,1.15,1.05,1.68,2.75,1.6,3.99Z"/>
    <path class="cls-3" d="M215.23,90.92l-7.02,21.1c4.65,1.27,11.62-8.13,13.82-1.61,2.39,7.09,6.95,2.68,8.56,9.56-.07,1.3-.3,2.71-.1,4.08h-1.67c-.09-1.38,1.09-2.78.06-4.46-2.59-4.19-6.49-.84-9.49-9.49-3.75,1.93-7.25,4.57-11.73,4.67-.92.02-.83-2.8-.59-3.64l5.17-18.4c-5.47-.85-9.43,1.82-14.43-.62,2.58-2.77,12.4.57,15.2-2.26.58-.58,2.3.25,2.23,1.06Z"/>
    <path class="cls-4" d="M70.98,134.03c-1.67-.44-1.7-2.56-2.08-4.37-1.33-6.31-6.26-11.54-7.07-17.9-.48-3.76,5.69-4.74,7.84-6.69.27.45,1.04.87.92,1.43-.19.92-.69,1.43-.83,2.37,5.56-1.5.26,1.08,1.18,13.21.31,4.04-1.34,8.35.04,11.95Z"/>
    <path class="cls-4" d="M235.51,151.74c-2.21.98-3.71-.61-6.03-.62l-102.93-.46,56.02-.65c4.09-1.9,8-.26,12.11-.22l37.82.39c.91,0,2.13.82,3.01,1.56Z"/>
    <path class="cls-4" d="M253.4,162.95c.93,2.89,1.04,6.53,3.12,9.1l1.21,1.49c.41.51.49,2.22-.52,2.73,2.6-1.3-8.12-.11-5.24.02-1.54-.07-1.31-1.64-1.48-3.31-1.25.37-.87,1.36-.76,2.06-2.6.68-2.18-1.98-2.89-3.8-.62-1.58,5.49-9.26,6.57-8.28Z"/>
    <path class="cls-4" d="M228.63,212.94v1.11l-85.11.38c-1.26,0-2.56-.53-3.85-.29.34-.33-.48-1.57.37-1.89.45-.17,1.03.78,1.78.78l86.81-.09Z"/>
    <path class="cls-4" d="M240.29,158.03c-.65,6.16,2.38,11.51,4.66,18.23-1.71.56-6.82.84-7.46-.94l.34-21.08.87-.07c.62,1.1,1.42,2.64,1.59,3.86Z"/>
    <path class="cls-4" d="M75.7,119.17c.08.23.03.56.01.81-2.46,2.15-.73,5.86-2.85,9.1.01-5.36-.6-11.01.24-16.7.4-2.66,2.45-4.6.61-7.62-.81-1.34-1.33-3.53.12-5.38,2.47,3.57,4.5,6.34,7.46,9.7l-5.6,4.06c-1.94,1.41-.61,4.24,0,6.03Z"/>
    <path class="cls-5" d="M158.44,168.96c.07.45.99.91.98,1.6,0,.54-.4,1.07-.8,1.47l-17.89,2.38c-1.44-.49-2.66-1.1-3.93-1.19-.76.16-1.49.44-2.18.81.28-1.33.51-2.04.38-2.67,3.25-1.21,14.51,1.41,12.62-2.33,3.48-.63,7.3.33,10.81-.08Z"/>
    <path class="cls-3" d="M241.63,158.03h-1.34c-.17-1.23-.97-2.77-1.59-3.86l-1.96-30.62c-.59-2.16,2.38-2.18,1.82.1.83,12.12.26,23.62,3.07,34.38Z"/>
    <path class="cls-2" d="M158.44,168.96c-3.51.4-7.34-.55-10.81.08s-6.65-.54-10.67.73c-.72-.96-.33-2.41-.33-3.73l19.03-.43c1.23-.03,2.31,0,2.83,1.07.28.57-.03,1.49-.04,2.29Z"/>
    <path class="cls-5" d="M209.72,145.99c-1.22-.52-2.72-.58-3.98-1.02-1.09-1.01-1.32-2.6-2.12-4.25-.51-4.77-2.82-8.77-2.51-14.28,3.79,6.38,7.26,12.66,8.61,19.55Z"/>
    <path class="cls-3" d="M193.35,124.32c-.27.22-.52.46-.73.73-1.16-2.57-4.65-5.27-3.99-8.32l1.23-5.64c.76-3.47-1.24-7.21.8-10.87,2.38,4.47-.02,8.44.94,12.73.89,4,1.59,7.72,1.75,11.37Z"/>
    <path class="cls-3" d="M190.26,133.27l1.11-.04c-.46,1.97-1.31,4.45.54,5.85l-1.07.27c-8.37-7.84-8.97-8.13-22.22-5.62-.25-1.23.38-1.82,1.05-2.7,6.23.91,9.76-2.23,17.67,2.41,1.06.62,2.2.3,2.92-.17Z"/>
    <path class="cls-4" d="M139.85,199.28c-6.08,3.48-13.29-.42-15.93-5.99,5.97.87,10.62,2.44,15.93,5.99Z"/>
    <path class="cls-4" d="M297.75,191.03h-1.26c0-2.22.79-3.23.89-5.1-2.53,2.43-4.62,5.18-3.98,9.05-.72-.34-1.69-.96-1.69-1.5,0-.93,5.47-15.2,10.2-13.57,1.18.41,2.4.99,3.53,2.59-3.56,2.09-5.55,5.33-7.69,8.52Z"/>
    <path class="cls-3" d="M285.23,196.76l-.72,1.1c-.76.21-1.67-.26-2.96.61,1.2.82,2.36,1.39,3.07,2.56,0,.65-.37.98-1,1-1.93.05-3.87-.03-5.79-.23l-.3-3.77c1.29-1.03,1.53-2.78,2.47-4.46,2.13.66,3.6,2.1,5.22,3.19Z"/>
    <path class="cls-3" d="M148.63,111.03c-.05.62-.04,1.22.73,1.04-.12.24-.28.45-.5.61-5.56.29-14.33,8.41-15.9,2.96,7.95.06,9.3-4.5,15.67-4.61Z"/>
    <path class="cls-3" d="M150.5,115.13c-4.16,1.32-7.06,5.45-12.69,5.76,2.75-3.68,7.71-4.13,11.15-6.69.47-.32,1.3.6,1.54.93Z"/>
    <path class="cls-4" d="M277.54,198.03l.3,3.77c.03.36-.07.9-.21,1.23-.45.16-1.52.16-1.12.88-1.84,1.39-3.03,3.37-4.79,5.25-.38.4-1.7-.96-.77-1.15.3-.06.38-.68.67-.98l.2-2c.03-.29-.03-.79.13-1,.56-.54.8-1.54,1.43-2,.99-.73,1.67-1.68,1.51-3,.3-.29.54-.63.73-1l.18-2c.58-1.13.72-2.4.54-3.65.62-.32,1.32-.51,1.3.53l-.11,5.12Z"/>
    <path class="cls-4" d="M260.68,71.08c-1.5,2.82-4.54,5.65-6.83,7.93-.74-.21-1.71-.16-2.69-1.16.69-2.99,4.88-2.95,6.11-4.97.34-2.17-3.25-4.86-2.1-7.14.66-1.32,4.09-2.65,5.07-1.37,1.2,1.57.8,5.1.44,6.72Z"/>
    <path class="cls-4" d="M199.63,219.99c-.3.38-.63.73-1,1.04l-39.22-.11v-.9l40.22-.03Z"/>
    <path class="cls-3" d="M154.8,220.21c-.16,3.26-4.54,2.72-7.17,2.86.03-1.26-1.1-1.17-1,.05l-2.06.1c.09-1.14,0-2.3.35-3.66,3.66-.3,6.82-.24,9.88.64Z"/>
    <path class="cls-3" d="M136.63,166.03c0,1.32-.39,2.77.33,3.73,4.03-1.27,7.25-.11,10.67-.73,1.89,3.74-9.38,1.12-12.62,2.33-.58-2.74-1.14-7.29,1.62-7.33v2Z"/>
    <path class="cls-3" d="M125.63,169.03h-1c-.75-5.59-2.16-10.94.04-16.9,1.98,6.13.66,11.49.96,16.9Z"/>
    <path class="cls-3" d="M262.64,165.99c.42-.06,1.54.17,1.06-.7,3.43,1.4,8.11,2.35,9.17,7.46-4.08-1.42-6.86-4.81-10.23-6.77Z"/>
    <path class="cls-4" d="M154.61,116.04c-.25-1.22-2.99-1.26-4.1-.91-.24-.33-1.06-1.25-1.54-.93l-.11-1.52c.22-.16.38-.37.5-.61,2.48.44,5.15-1.4,7.94-.46,1.59.53,1.58,2.42.34,3.06-.95.49-1.96,1.09-3.03,1.37Z"/>
    <path class="cls-5" d="M124.63,169.03h1c.42,7.75-1.01,14.72,1.41,22.2-.62,1.26-2,.34-2.24-.46l-.17-21.74Z"/>
    <path class="cls-3" d="M276.34,192.38c.18,1.25.04,2.52-.54,3.65-.47-.2-.9-.04-1.05.58-.1.43.4,1.03.87,1.42-.19.37-.43.71-.73,1h-1.27c-.39-1.16-.99-2.27-2-3,.04-.38-.39-1.09-.79-1l-.22-2.58c1.94-.24,3.88.88,5.72-.07Z"/>
    <path class="cls-3" d="M273.63,199.03l-.24,3c-.62.46-.87,1.46-1.43,2-.49-.28-.95-.61-1.37-.98-.14-1.43-.04-2.96,1.04-4.02h2Z"/>
    <path class="cls-4" d="M285.63,204.03c.07.79.02,1.82,1,2-.61.95.02,2.79-1.64,2.95.07,0-8.56-1.16-4.47-3.48.43-2.37,1.82-1.46,1.41,1.32,1.19-1.12,1.75-3.07,1.7-4.79.63-.02,1.01-.35,1-1-.01-1.06-.04-2.11-.11-3.17l.72-1.1c3.01-6.4.05,3.37.4,7.27Z"/>
    <path class="cls-4" d="M262.71,171.96c1.67,3.31,5.84,3.92,5.63,8.38-4.06-2.89-7.66-5.58-9.79-10.21,1.83.59,2.64,1.8,4.16,1.84Z"/>
    <path class="cls-3" d="M137.52,223.19h-3.09c-.48-.84-1.26-1.92-.87-2.55.3-.47,9.38-1.8,9.2.08-2.18.93-5.04.36-5.24,2.47Z"/>
    <path class="cls-5" d="M259.67,40.3c4.13,6.74-2.16,2.57,1.93,7.73-1.84.25-4.12-1.17-3.88-2.85.29-1.97,1.14-3.51.02-4.87.4.37,1.59.68,1.92,0Z"/>
    <path class="cls-4" d="M163.26,145.79l3.23-2.21c.56,2.59,3.05.28,5.4,1.4-1.56,2.21-7.69,3.41-8.62.81Z"/>
    <path class="cls-5" d="M240.22,37.76c-3.11.51-4.52-1.97-6.62-2.2,2.24-.87,3.49-.75,5.31-1.26.91-.25,2.35,2.98,1.31,3.46Z"/>
    <path class="cls-3" d="M194.45,144.03c-.11,1.04.49,3.04-1.03,3.41-.87.21-2.16.75-3.31.48-1.06-.24-.66-2.14-.51-2.9l1.96-.16,1.87-1.08,1.02.25Z"/>
    <path class="cls-5" d="M183.63,146.03v1c-3.4-.22-5.82.44-9.12-.35,3.06-1.61,6.31-2.35,9.12-.65Z"/>
    <path class="cls-5" d="M297.75,191.03c-2.63,3.91.05,7.03-.79,11.65-2.56-3.72-1.62-8.38-.47-11.65h1.26Z"/>
    <path class="cls-3" d="M143.51,214.43c-.61,1.16-.54,2.53-1.36,3.58-.81-1.14-1.34-1.51-1.93-1.53-.3-.01-1.08.68-1.28.43-1.01-1.28.19-2.25.72-2.77,1.28-.24,2.59.3,3.85.29Z"/>
    <path class="cls-3" d="M132.47,223.2c-1.41.01-2.79-.32-3.98-1.11.18-1.47.71-2.38,1.64-2.11,1.72.51,3.09,1.69,2.34,3.22Z"/>
    <path class="cls-4" d="M238.39,115.76c.54.1,1.13.4,1.24.82.14.54-.05,1.48-.61,1.86-1.13.77-2.42-.04-3.44.22-.13-1.62,1.31-2.66,2.81-2.9Z"/>
    <path class="cls-4" d="M269.47,181.02c-.05-.46.29-.98.33-2.16,1.76,1.07,4.06.44,5.93,2.08-2.68,2.13-4.41-.39-6.26.08Z"/>
    <path class="cls-5" d="M302.79,130.11c-.72-2.17.44-3.14,1.35-5.1,1.04,1.69.87,4.14-1.35,5.1Z"/>
    <path class="cls-5" d="M80.71,11.28c-.46.5-1.11.76-1.61.76-.88,0-1.83-.3-1.47-1.28,1.48-.42,2.46-1.93,5.04-1.61-.45,1.23-1.83,1.09-1.96,2.13Z"/>
    <path class="cls-4" d="M88.05,29.91c-.72-3.01-.1-6.62,2.57-7.72-.26,3.56-2.12,4.99-2.57,7.72Z"/>
    <path class="cls-5" d="M286.63,206.03c-.98-.18-.93-1.21-1-2,.73-.19.79-.87,1.43-2.07,1.52,1.41.32,2.9-.43,4.07Z"/>
    <path class="cls-5" d="M305.05,124.01c-.71-1.43-.71-3.02-.04-5.05,1.05,1.07.93,2.43.04,5.05Z"/>
    <path class="cls-5" d="M82.44,12.95l-.04-1.63c.92-.09,1.75-.59,3.28-.1-.69,1.58-1.9,2.12-3.24,1.73Z"/>
    <path class="cls-3" d="M183.63,147.03v-1c.99.6,2.65-.63,2.99.44.11.34.11,1.11-.43,1.52-.81.62-1.9-.71-2.56-.97Z"/>
    <path class="cls-3" d="M271.83,205.03l-.2,2c-1.17-.18-2.43-.34-3.07-1.78,1.5-.47,2.37-.13,3.28-.22Z"/>
    <path class="cls-5" d="M288.07,201.01c-.79-1.05-.6-2.28-.18-4.06,1.16.57,1.07,1.7.18,4.06Z"/>
    <path class="cls-3" d="M268.63,199.03v1c-.52,0-.99.15-.99.55-.01.66.03,1.19.08,1.56l-.81.04c.23-1.03-.52-2.43.73-3.15h1Z"/>
    <path class="cls-3" d="M269.55,202.15h-.92s0-2.11,0-2.11c.5,0,.93.11,1,.53.09.55-.26,1.2-.08,1.58Z"/>
    <path class="cls-3" d="M149.76,120.02c-3.21,1.69-5.2,6.38-9.79,6.56,1.88-4.73,6.91-4.65,9.79-7.12v.56Z"/>
    <path class="cls-1" d="M68.63,171.99c-1.14.73-1-.98-1.05-1.54-.07-.77.34-1.82,1.41-1.42l-.36,2.96Z"/>
    <circle class="cls-4" cx="86.13" cy="25.03" r=".63"/>
    <path class="cls-1" d="M44.63,157.03c-.56.13-.91-.2-1.01-.55-.26-.88.34-1.76,1.17-1.45l-.15,2Z"/>
    <path class="cls-4" d="M106.33,28.81l-2.77-3.62c1.44.21,2.46.92,2.77,3.62Z"/>
    <circle class="cls-3" cx="136.63" cy="217.53" r=".63"/>
    <path class="cls-2" d="M89.12,191.75c-.94-.8,1.32-1.53.79-3.27-2.17,1.32-3.82,2.19-5.3,1.53-2.82-1.26-4.44-2.85-4.02-5.98,1.97-14.94-1.33-23.4,9.79-32.97.62,12.19,1.35,26.37,15.57,30.56-2.3,7.58-8.76,9.93-16.83,10.13Z"/>
    <circle class="cls-5" cx="241.63" cy="40.03" r=".86"/>
    <circle class="cls-4" cx="210.13" cy="37.53" r=".5"/>
    <path class="cls-4" d="M259.67,40.3c-.32.69-1.52.38-1.92,0,.62-1.44-6.93-8.95-9.79-6.85-.66-1.03-1.17-3.43-2.71-2.64-.76.39-1.68.9-2.92,2.3-1.25-.59-.44-1.88.12-3.38-2.48-1.44-4.99,0-8.12.97-.84.15-.49-2.34-.09-2.9-4.54-1.76-6.11,2.89-8.77,4.62-3.91,2.56-8.6,2.68-11.86,7.2-.9-2.38-2.03-3.45-1.33-4.47,2.38-3.47,10.22-5.1,7.76-5.29,2.21.17,3.58-1.77,5.38-2.84,2.73-1.63,7.04-.69,9.61-2.46,3.25-2.24,4.25,1.91,5.77,2.11,6.89.89,12.22,3,16.09,9.11.47.75,2.92.87,3.37,2.24.21.65.32,1.5-.58,2.28Z"/>
    <circle class="cls-4" cx="43.13" cy="31.53" r=".5"/>
    <path class="cls-4" d="M82.44,12.95c1.34.39,2.54-.15,3.24-1.73-1.53-.49-2.36,0-3.28.1-.55.05-1.13-.06-1.68-.04.12-1.05,1.5-.9,1.96-2.13-2.58-.31-3.56,1.19-5.04,1.61-2.99-.36-5.16,2.49-8.04,2.77l-4,.38c1.78-2.96,4.58-3.49,7.52-6.44-1.48-1.62-14.03,1.41-12.23,2.25l-3.12-1.46c.05.02-8.35,2.84-8.05,10.86-1.31-1.1-.17-3.03-2.54-3.48-.3,3.46-1.32,6.33-.42,9.65,2,3.75,12.88-6.86,14.17.13.13.69-1.42.98-2.52,1.52-.67.32-.15-1.28-.77-2.12-4-.67-5.15,3.98-7.64,5.68-1.61.04-4.24-2.8-6.2,0l-.53-5.47-3.21.52c-.62-1.74-1.71-2.64-3.25-3.08,1.28-2.53,2.33-4.61,5.06-6.59.87,1.75.49,3.38,2.07,4.99,1.03-2.38,2.71-4.47,3.39-6.92-.03-.43-1.68-1.11-1.67-1.47.04-.86,2.5-.3,2.87-.7,8.72-9.55,17.91-6.84,29.85-7.16.04.88-.69,1.91-.11,2.59,14.6.49,16.76,5.75,27.63,13.35l-3.9,1.07c.67.75.96.99,1.22,1.24.52.5.22,1.16-.15,1.2-2.54.23-1.86-2.99-2.93-2.92-.63.05-.97,1.42-2.09,1.96-1.52-10.42-19.77-7.95-15.62-10.16ZM89.49,11.03c0-.48-.39-.86-.86-.86s-.86.39-.86.86.39.86.86.86.86-.39.86-.86Z"/>
    <circle class="cls-4" cx="36.13" cy="24.53" r=".5"/>
    <path class="cls-3" d="M276.51,203.91c-.4-.72.67-.72,1.12-.88-.19.44-.77.62-1.12.88Z"/>
    <circle class="cls-4" cx="107.13" cy="21.53" r=".5"/>
    <circle class="cls-3" cx="139.13" cy="209.53" r=".5"/>
    <circle class="cls-4" cx="58.13" cy="10.53" r=".5"/>
    <path class="cls-1" d="M242.63,112.03c-.1-.76.45-1.22,1.18-.91-.29.4-.77.65-1.18.91Z"/>
    <path class="cls-6" d="M297.87,78.98c-.41,2.83.22,5.82-3.01,6.74-.01-3.44-.9-6.32-2.6-9.81,4.47-1.56,8.46.51,10.72,4.09-1.81,1.17-2.6-.62-5.11-1.02Z"/>
    <path class="cls-3" d="M324.43,81.04c1.92-.99,2.66-2.01,3.58-1.65.46.18,1.82.27,1.41.97-.93,1.45-3.27,2-2.9,3.57.64,2.71,2.89,4.38,4.5,5.84-1.63,1.81-5.39,4.11-6.53,1.59-.19-1.28,2.46-2.93,1.86-3.7l-2.12-2.67c-.78-.98.77-2.83.2-3.95Z"/>
    <path class="cls-3" d="M291.58,104.12c4.44-2.2,7.88-4.46,12.5-5.67-2.67,4.97-8.15,7.06-12.5,5.67Z"/>
    <path class="cls-1" d="M319.6,219.63c-1.81.67-3.66.72-6.06,0,1.44-1.02,3.11-.93,6.06,0Z"/>
    <path class="cls-1" d="M88.38,229.09c.63.98-.66.94-2.02,1.18-1.37-1.06-.27-1.54,2.02-1.18Z"/>
    <path class="cls-6" d="M273.39,202.03l.24-3h1.27c.15,1.32-.52,2.27-1.51,3Z"/>
    <path class="cls-6" d="M273.63,199.03h-2v-3c1.01.73,1.61,1.84,2,3Z"/>
    <path class="cls-6" d="M99.65,60.47c-2.75-1.54-.92-3.99-1.13-6.67-.11-1.43-2.65-.58-4.02-1.05,2.27-2.24,5.15-3.48,8.61-3.03-1.21,3.86-1.57,6.94-3.47,10.75Z"/>
    <path class="cls-3" d="M105.15,47.05c-4.74.1-7.97-1.58-12.38-.04,2.99-3.99,9.56-5.66,12.38.04Z"/>
    <path class="cls-3" d="M70.66,64.26c-2.17-.76-3.2-2.47-5.52-1.88-.7-.12-.67-2.11-.22-2.7.5-.64.93-1.66,2.54-1.66.79,2.46,3.26,2.46,3.2,6.23Z"/>
    <path class="cls-3" d="M67.73,57.62c.26-1.95,1-3.01.4-4.33s-1.72-2.54-3.37-3.15c2.55-1.93,3.91.27,4.66,1.58,1.43,2.51,1.31,4.71-1.69,5.9Z"/>
    <circle class="cls-6" cx="72.63" cy="82.03" r="1.11"/>
    <path class="cls-3" d="M195.53,118.69c-1.45-5.95-1.62-11.39.1-17.57,1.61,5.96,1.8,11.33-.1,17.57Z"/>
    <path class="cls-5" d="M206.76,99.43l-3.02,14.48c-3.24-.58,1.66-16.14,1.35-15.89.34-.27,1.98-.05,1.67,1.41Z"/>
    <path class="cls-5" d="M190.44,130.71c-.34-.48-.65-.64-.9-.01.02-1.24-1.2-.64-1.83-.9-1.56-.63-4,.12-5.53-2.2l6.63,1.31c-1.29-1.3-2.54-2.31-2.29-4.1,2.31,1.13,3.79,3.5,3.92,5.89Z"/>
    <path class="cls-5" d="M190.85,139.36l1.07-.27c1.46,1.11,1.3,2.96,1.51,4.7l-1.87,1.08c-.97-2.96-3.52-4.41-6.19-6.4,2.43-1.32,3.01,1.3,4.63,1.98,1.4,1.03,2.11.08.84-1.1Z"/>
    <path class="cls-3" d="M189.53,130.7l-.02,1.55c-.94-.52-1.62-1.38-1.81-2.45.64.26,1.85-.34,1.83.9Z"/>
    <path class="cls-6" d="M191.37,133.24l-1.11.04-.75-1.02.02-1.55c.25-.63.57-.47.9.01.26.39.88.76,1.62,1.43.33.3.25.85-.68,1.09Z"/>
    <path class="cls-3" d="M166.63,172.03c.85.16,1.29-.68,1-1.49-.18-.5-.42-1.05-1-.66-.2-1.96-.24-5.71,1.89-5.91,8.17-.78,16.21-.69,24.49.63l.14,34.27c0,2.25-1.1,4.26-3.5,4.32-7.72.19-15,.53-22.89-.1l-.13-31.06ZM168.63,168.03v4l-.13,28.2,22.25.52c.58-9.92.75-19.33-.11-28.7-.03-.32-.16-1.03-.99-1.03l-11.11.04c-1.07,0-1.59.91-1.06,1.61l-7.84-.5v-2.14l20.03-.02c.75,0,1.05-.52.97-.98-.05-.3-.06-.7,0-1,.11-.53.23-2.01-.93-2.01h-20.15c-1.24,0-.92,1.48-.92,2.01Z"/>
    <path class="cls-6" d="M198.63,173.03c2-2.96,4.7-3.39,8.25-2.41,2.39.66,14.15.82,16.13-.33.61-.36.47-1.39.43-2.07-.03-.43.61-2-.01-2.01l-19.76-.2.96,2.02c-1.55,1.46-3.78,1.1-5.76,1.24-.2-1.91-.24-3.36.34-4.2.47-.68,2-1.58,3.37-1.52l22.51.95c.47,12.91.97,25.23-.03,38.33-8.54,1.12-16.67.43-25.83.35-1.05-10.4-1.21-20.28-.59-30.15ZM223.26,200.53c.44-10.45.78-19.45-.21-29.04l-22.31.71.2,27.93,22.32.4Z"/>
    <path class="cls-5" d="M223.44,168.22c.04.68.19,1.72-.43,2.07-1.99,1.15-13.74.99-16.13.33-3.55-.97-6.25-.55-8.25,2.41l.24-3.76c1.99-.13,4.22.22,5.76-1.24l18.81.19Z"/>
    <path class="cls-5" d="M166.63,172.03v-2.15c.58-.39.82.16,1,.66.3.81-.15,1.65-1,1.49Z"/>
    <path class="cls-3" d="M219.57,65.32c-1.49-2.14-2.75-4.45-6.23-3.12-1-1.58.29-2.43.99-2.97,2.54-1.95,7.54-.63,8.15,2.25.25,1.16-1.29,3.9-2.92,3.84Z"/>
    <path class="cls-3" d="M241.27,65.11c-1.88,1.11-1.21,3.98-3.82,4.07-1.34-1.78-2-5.65.19-6.98,3.42-2.08,7.3.55,8.8,3.66-1.85.93-3.31-1.86-5.18-.75Z"/>
    <path class="cls-5" d="M236.27,82c-6.25,2.23-12.97.85-18.37-2.57,6.67.31,11.74,1.46,18.37,2.57Z"/>
    <path class="cls-3" d="M247.47,58.91c-3.79-.61-7.2-.31-11.28-2.28,3.49-2.89,8.63-2.07,11.28,2.28Z"/>
    <path class="cls-3" d="M223.71,54.42c-3.46,1.57-6.59-.47-10.16-.27,2.66-3.27,7.2-3.51,10.16.27Z"/>
    <path class="cls-5" d="M223.18,75.96c-3.33-2.27-1.2-6.31,1.13-9.89.64,3.01-.74,5.31-1.13,9.89Z"/>
    <path class="cls-6" d="M124.81,129.05l-4.56,3.88c3.19-4.93,2.81-9.58.05-14.91,4.7,2.05,3.9,7.01,4.51,11.02Z"/>
    <circle class="cls-4" cx="242.13" cy="117.53" r=".5"/>
    <path class="cls-5" d="M158.75,225.05c-.69-1.28,48.33-2.4,41.82,1.18l-41.82-1.18Z"/>
    <path class="cls-5" d="M198.63,221.03c-1.58,3.18-42.36-1.79-40.6,3.2-1.2-2.07.57-2.58,1.38-3.31l39.22.11Z"/>
    <path class="cls-3" d="M210.05,224.85c6.31,1.86-2.71-1.46-.99-2.66.35-.24.8.75,1.14.9.63.28.76,2.03-.16,1.76Z"/>
    <circle class="cls-3" cx="207.13" cy="221.53" r=".5"/>
    <path class="cls-6" d="M147.63,223.07l-1,.05c-.1-1.22,1.03-1.31,1-.05Z"/>
    <path class="cls-5" d="M303.83,157.67c-1.86-5.05-3.36-9.6-2.6-15.27,2.26,4.64,3.25,9.45,2.6,15.27Z"/>
    <circle class="cls-5" cx="88.63" cy="11.03" r=".86"/>
    <path class="cls-5" d="M145.31,186.22c-3.39.8-5.2,4.19-3.97,8.63l4.27-.9c-.52,1.02.05,2.7-1,2.47-1.49-.32-2.77-.89-3.98-.18.05-4.61-2.59-9.05,2.06-10.8-2.1-.29-3.71-1.86-3.61-3.98.07-1.47.81-3.94,2.7-4.29,1.48,2.25,2.03,2.02,2.51-.38,2.78,1.9-.49,4.31-.06,4.79,1.34,1.52.93,3.28,1.09,4.63Z"/>
    <path class="cls-3" d="M156.13,192.69c.05,1.61.19,3.23-.57,3.53-1.02.41-2.16.41-3.34.38-1.64-.05-1.79-6.57,1.05-7.06,1.46-.25,2.78.66,2.86,3.16ZM154.07,195.01c.89-2.36.97-3.5-.18-4.06-.42,1.79-.61,3.01.18,4.06Z"/>
    <path class="cls-4" d="M145.31,186.22c.37,3.19,1.47,5.42.3,7.73l-4.27.9c-1.23-4.44.58-7.83,3.97-8.63Z"/>
    <path class="cls-5" d="M150.69,179.67c1.38-1.51,4.37-1.1,4.67.25.26,1.17.8,3.71.08,4.58-.88,1.05-3.45.92-4.39.31-1.02-.66-1.91-3.44-.36-5.13Z"/>
    <path class="cls-6" d="M284.51,197.86c.07,1.05.1,2.11.11,3.17-.7-1.17-1.87-1.74-3.07-2.56,1.29-.87,2.19-.4,2.96-.61Z"/>
    <path class="cls-6" d="M275.63,198.03c-.47-.39-.98-.99-.87-1.42.15-.62.58-.78,1.05-.58l-.18,2Z"/>
    <path class="cls-3" d="M169.06,36.66c-.19,1.1-1.37,1.43-1.94,1.45-.9.03-2.29-.46-2.54-1.79-1.49-7.67-5.04-20.42,1.65-21.02,8.16-.73,4.19,13.53,2.83,21.36Z"/>
    <path class="cls-3" d="M165.71,40.89c2.22-.73,4.02.67,4.53,1.96.88,2.21-.55,3.95-2.46,4.55-1.55.48-3.39.08-4.31-1.49-.98-1.68-.35-4.16,2.24-5.01Z"/>
    <path class="cls-2" d="M177.47,172.68c4.3.27,8.82.63,13.16-.62.86,9.37.69,18.78.11,28.7l-22.25-.52.13-28.2c.31.1.69.12,1,.14l7.84.5ZM176.66,187.9c.26-1.45.45-2.86.06-4.85-.35-1.76.35-3.67.02-6.06-.2-1.48-2.43-1.06-3.46-.89-3.02.51-2.71,10.25-1.02,13.37.61,1.13,3.84-.14,4.41-1.57ZM172.05,192.88c-1.04,1.65-.71,4.21.45,4.69,1.26.52,3.02.2,3.89-.42,1.36-.98,1.01-3.46-.14-4.28-.87-.62-3.1-1.7-4.19.02Z"/>
    <path class="cls-4" d="M190.63,168.03l-8.96.04c-4.52-1.56-8.96-1.43-13.04-.04,0-.53-.32-2.01.92-2.01h20.15c1.17,0,1.04,1.49.93,2.01Z"/>
    <path class="cls-5" d="M190.63,168.03c-.06.3-.05.7,0,1h-20.01c-.8-.02-1.15.65-.99,1v2.14c-.31-.02-.69-.04-1-.14v-4c4.08-1.39,8.52-1.51,13.04.04l8.96-.04Z"/>
    <path class="cls-5" d="M190.63,172.06c-4.34,1.25-8.86.89-13.16.62-.53-.7-.01-1.61,1.06-1.61l11.11-.04c.84,0,.96.71.99,1.03Z"/>
    <path class="cls-4" d="M190.63,169.03c.08.46-.22.98-.97.98l-20.03.02c-.16-.35.19-1.02.99-1.01h20.01Z"/>
    <path class="cls-2" d="M223.26,200.53l-22.32-.4-.2-27.93,22.31-.71c.98,9.59.65,18.59.21,29.04ZM202.69,185.89c2.61,2.2,7.72,2.09,10.39.12-2.37-1.85-4.4-1.41-5.75-2.91-.77-.85,1.15-3.34-.45-3.99s-1.31,2.04-1.9,2.28c-.89.36-2.17-.88-3.04-.16-1.09.91.26,2.33,1.24,2.03.4-.12,1.26-.13,1.83.19.59.41.1,1.43-.08,1.13s-2.91.75-2.24,1.32ZM214.54,185.9c1.78,2.6,4.81,2.18,5.69,1.14s1.67-4.22-.71-4.81c-1.73-.43-5.88,2.35-4.98,3.67ZM213.51,192.52c-.11.22-2.69-4.05-2.71-1.69,0,.93.08,1.57-.75,2.24-.65-1.84-1.31-3.31-2.96-3.28-2.4.04-3.62.77-3.71,2.78-.06,1.27.72,3.49,2.27,3.48,2.79-3.62,7.14-2.04,7.87-3.54Z"/>
    <path class="cls-4" d="M223.44,168.22l-18.81-.19-.96-2.02,19.76.2c.62,0-.01,1.58.01,2.01Z"/>
    <path class="cls-2" d="M154.07,195.01c-.79-1.05-.6-2.28-.18-4.06,1.16.57,1.07,1.7.18,4.06Z"/>
    <path class="cls-3" d="M176.72,183.06c-.81-.99-1.76-1.93-3.19-2.18-.75,2.15-1.02,4.84.56,6.96.49.66,2.06-.02,2.57.07-.57,1.43-3.8,2.7-4.41,1.57-1.69-3.12-2-12.85,1.02-13.37,1.02-.17,3.25-.59,3.46.89.33,2.39-.37,4.29-.02,6.06Z"/>
    <path class="cls-5" d="M172.05,192.88c1.09-1.72,3.33-.64,4.19-.02,1.15.82,1.5,3.3.14,4.28-.87.63-2.62.94-3.89.42-1.15-.47-1.49-3.04-.45-4.69Z"/>
    <path class="cls-5" d="M176.72,183.06c.39,1.99.2,3.4-.06,4.85-.51-.09-2.08.59-2.57-.07-1.59-2.12-1.31-4.81-.56-6.96,1.42.25,2.38,1.19,3.19,2.18Z"/>
    <path class="cls-5" d="M202.69,185.89c-.67-.57,2.05-1.64,2.24-1.32s.67-.72.08-1.13c-.57-.32-1.43-.31-1.83-.19-.98.3-2.32-1.12-1.24-2.03.87-.73,2.15.51,3.04.16.59-.23.37-2.89,1.9-2.28s-.32,3.14.45,3.99c1.35,1.5,3.39,1.06,5.75,2.91-2.68,1.97-7.78,2.08-10.39-.12Z"/>
    <path class="cls-3" d="M213.51,192.52c-.72,1.49-5.07-.08-7.87,3.54-1.55.01-2.32-2.21-2.27-3.48.09-2.01,1.31-2.74,3.71-2.78,1.65-.03,2.32,1.44,2.96,3.28.84-.67.75-1.31.75-2.24.02-2.36,2.6,1.92,2.71,1.69Z"/>
    <path class="cls-3" d="M214.54,185.9c-.91-1.33,3.25-4.1,4.98-3.67,2.38.59,1.58,3.77.71,4.81s-3.91,1.47-5.69-1.14Z"/>
    <path class="cls-6" d="M9.87,104.5c-.1.11-.2.23-.3.33.19-.18.28-.29.3-.33Z"/>
    <path class="cls-6" d="M325.29,210.19c-5.45-4.48-4.1-15.17-3.47-21.29,3.42-.61,5.69-.97,8.08-.03.45.17.93-.22,1.17-.54,1.14-1.02-.31-3.77,1.13-4.51l12.48-6.42c-4.44-1.51-6.91,1.73-11.64,3.14l.59-17.47-1-.03c-1.24,6.58-1.73,13.1-3.67,20.12-.55,1.99-5.48,4.29-5.8,1.78-3.28-25.43,4.93-47.74,19.44-67.82,2.92.14,4.7.85,7.55,1.43l-.49,3.64c1.34-.69,1.58-1.98,2.49-2.07.36-.03,1.07.1,1.77.32l14.49-10.41c-.33-1.55-.11-2.91.02-4.52.61,1.44,1.6,2.79,3.25,2.59-2.01-19.41-15.34-10.9-16.45-27.17-.66-9.7-1.64-20.09-7.5-28.18-8.02-11.06-22.22-14.61-35.2-12.79-9.71,1.36-17.06,5.67-24.03,12.1-4.19,3.86-8.02,7.22-10.68,12.95-2.66-13.89,1.23-8.54-.95-27.08-.8-6.84.08-13.47-.25-19.9h-1c.42,1.8-.33,4.14,0,6,.29,1.67-.54,3.44-.35,5.08.85,7.61.05,15.28.35,22.92.33,8.18-.61,16.36,1.66,25.6l2.71-4.75c1.31,1.03.06,2.33.95,4.21,1.41-.74,1.29-2.22,2.66-3.52,1.66,1.17,1.12,2.52,1.28,3.65.63-.02,1.36-.08,1.95.21.97.49.21,1.62.3,2.36.17,1.41.56,2.81.49,4.25h1c1.43-10.37-4.02-13.38,3.65-26.16.82,4.4,2.22,7.57,4.56,10.92-2.1,1.28-4.43-.87-5.58,2.35l11.26,2.42c3.48.75,5.36-.09,8.27,2.25,4.86,3.92,6.72,8.52,7.29,15.92,2.38-4.71,2.55-8.26,6.34-10.69,1.57-1,1.61-4.58,4.83-3.81,2.02.48,4.31,1.4,5.15,4.22,2.26,7.6-3.31,14.62-10.61,16.79-.94.9-.35,4.1.65,4.96,1.68,1.44,5.97.71,7.08,2.94,1.98,3.97,5.79,7.31,8.94,9.81-.93,6.12-6.29,10.65-9.13,15.61l-5.05,8.83c-2.75,4.81-3.8,10.51-8.97,14.2-6.06-5.75-3.69-17.61.31-24.38,3.2-5.41-6.08-13.32-4.9-15.4l2.73-4.81c-6.55,2.23-12.74,6.17-19.62,4.53-3.16-1.44-4.08-7.36-4.26-10.39-2.82-.92-2.19-4.19-3.98-6l-1-.1c1.12,5.23,3.04,10.6,5.5,15.83,1.88,4,7.72,3.21,11.35,3.9,1.06,3.24-3.22,6.14-2.9,8.41.59,4.23-.41,5.76-2.63,9.05-3.17,4.69-2.52,11.34-4.71,16.89-4.21-.63-1.75-19.04-3.67-19.73-1.75,4.93.81,9.66-1.68,14.19-4.58-4.7-2.79-11.93-7.37-14.79-.25,8.88,5.24,12.11,4.18,18.51-.79,4.76,1.24,8.79,3.36,14.1-11.7-.38-22.89-5.33-31.18-12.6-3.12-2.73-3.19-7.61-5.48-10.55l-.52.72c1.3,8.68,5.2,5.28.79,13.86,2.9,2.04,1.12,5.1,1.76,7.11.93,2.89,1.04,6.53,3.12,9.1l1.21,1.49c.35.43.45,1.69-.11,2.39-.01-.61-6.05,0-6.14.27-.99-.37-.84-1.76-.99-3.22-1.25.37-.87,1.36-.76,2.06.19,1.41-1.73,1.25-2.48.85-2.68-1.44-3.53-8.23-3.45-10.85.05-1.71,2.77-2.91,2.66-4.93-1.62-.22-1.31,3.09-2.63,2.99-2.66-.2-1.81-3.62-2.19-5.06h-1.34c-.65,6.16,2.38,11.51,4.66,18.23-1.71.56-6.82.84-7.46-.94l.34-21.08c.02-1.53-.58-3.2-1.18-4.75-.47-1.21-4.03-.77-4.57-1.86-1.59-7.82-.48-16.04-1.58-23.58h-1.67c.46,7.48-.54,14.88,2.08,23.35-8.13.09-15.43,1.05-21.17-1.41-1.22-.52-2.72-.58-3.98-1.02l-.47,1.42c-2.22,6.74-9.31-25.7-8.92-27.3-3.61-1.71.38,8.93-3,5.22-.27.22-.52.46-.73.73.97,2.14,2.31,4.32,2.99,6.98.31,1.2-1.65,2-2.43,3.19,2.92,2.43,3.34,6.39,1.27,8.8-.11,1.04.49,3.04-1.03,3.41-.87.21-2.16.75-3.31.48-1.06-.24-.66-2.14-.51-2.9-7.36-2.85-15.31-1.69-23.11-1.45.56,2.59,3.05.28,5.4,1.4-1.56,2.21-7.69,3.41-8.62.81-2.17-6.09,6.6-5.9,5.36-12.05-.25-1.23.38-1.82,1.05-2.7.67-.87,1.69-2.18,2.26-3.55,5.14-12.24,10.64-24.03,18.02-34.9,6.16,5.1-1.83-3.96,18.91-6.5,1.44-.18,2.59.04,3.33.92.63.75.89,1.82.8,2.85.58-.58,2.3.25,2.23,1.06-.26,3.02,3.88,4.19,4.67,6.38,2.49,6.93,4.63,13.29,10.19,18.36,1.15,1.05,1.68,2.75,1.6,3.99l3.89-.99c-.13-1.62,1.31-2.66,2.81-2.9.48-1.95,2.25-3.2,4.24-2.73-.02-.33.04-.67,0-1-.1-.76.45-1.22,1.18-.91.17-.24.11-.65.22-.92,4.82-12.3,7.67-13.17,7.7-28.84,4.16,3.15,4.12,7.55,7.79,8.82,1.05-.06,2.1.35,3.05.66,6.66,2.19,12.46,6.74,20.42,7.22-8.81-8-23.43-8.58-27.35-18.88-.59-.05-1.2-.01-1.78-.17-.74-.21-1.71-.16-2.69-1.16.69-2.99,4.88-2.95,6.11-4.97.34-2.17-3.25-4.86-2.1-7.14.66-1.32,4.09-2.65,5.07-1.37,1.2,1.57.8,5.1.44,6.72.16.39.4.73.74.98,1.73-4.46,1.34-10.03,4.09-14.46,3.89-6.28.21-13.19.09-14.26-.45-3.91-1.07-5.66-3.52-8.85-11.49-14.95-22.58-14.96-39.95-11.94-3.95.69-3.98,3.84-6.17,5.83-2.42,2.2-5.46,3.71-7.78,6.11-2.98,3.08-6.92,16.37-.83,21.88.09,2.65.67,6.62,1.13,9.68.84,5.66-.1,11.38,2.19,16.41-22.79,5.73-23.9,6.29-34.16,28.23l-11.29,24.14c-1.81,3.87-5.09,6.83-6.06,12.08h-30.9c6.64-3.76,11.24-8.64,16.35-13.94,3.48-3.61,7.84-6.16,11.6-9.4,2.97-2.56,7.28-12.2,1.13-14.11l-7.99-2.48c-3.58-1.11-20.95,7.44-27.92,8.2.73-4.11,3.31-10.34-1.25-13.14-1.54-.95-4.46-1.32-5.74-.08-.24,5.64-2.27,11.3-5.76,15.9-7.31,9.65,8.34,13.61-13.71,30.38-7.69-2.92,5.21-15.91-6.25-27.34-2.97-2.96-2.28-6.43-3.23-9.66-1.46-4.99-12.64-13.62-9.17-17.94,3.82-4.75,9.94,3.2,17.86,1.16,2.74-.7,1.82-4.81,2.93-6.63,3.25-5.35,6.18-10.75,9.89-15.5,1.13-1.45,3.79-1.28,3.97-3.36.17-1.86-.12-2.91-1.63-4.96-9.46-12.85,2.94-10.67.62-25.18,2.9.38,1.73,2.71,3.34,4.3,2.32-6.2-.84-12.54-4.8-18.49,2.78-1.12,5.7-1.54,8.12-3.14-15.31-2.56-15.29-14.51-32.89-16.46.31-1.59,1.83-1.97,2.33-2.96-3.95-2.34-9.35,1.1-13.26.12-9.54-2.4-16.87,0-24.29,6.02-2.87,2.33-7.41,2.71-10.24,6.64-5.36,7.45-9.2,15.84-11.52,24.8,7.57,1.64-1.1,3.96,8.4,17.12,2.75,3.81,6.92,12.75,5.43,17.58-.4,1.29-2.87.79-4.17,1.59-3.63,2.24-4.4,7.75-7.46,10.4-9.35,5.49-18.28,11.29-25.72,19.31-10.14,10.95,6.91-1.85,6.65-1.14,5.47-6.1,16.42-17.71,25.8-14.64-.69-1.35-2.92-1.14-3.53-3.29l6.82-7.94c3.62-4.21,26.89,20.99,29.03,23.64.69.85,1.81,1.41,1.69,2.8.27.45,1.04.87.92,1.43-.19.92-.69,1.43-.83,2.37,5.56-1.5.26,1.08,1.18,13.21.31,4.04-1.34,8.35.04,11.95.72,1.87.26,3,.27,4.97.04,8.08.1,16.44-1.84,24.28-.42,1.69,1.38,4.37-.42,5.75l-.36,2.96c.36-.23,1.42.1,2.23-.08,2.09-7.12,1.73-15.9,2.41-23.81l2.44-28.12c-2.46,2.15-.73,5.86-2.85,9.1.01-5.36-.6-11.01.24-16.7.4-2.66,2.45-4.6.61-7.62-.81-1.34-1.33-3.53.12-5.38,2.47,3.57,4.5,6.34,7.46,9.7l-5.6,4.06c-1.94,1.41-.61,4.24,0,6.03,1.22.64,3.04,1.77,4.05,2.71-.53-2.83-2.11-3.68-2.87-5.24-.87-1.79,1.06-2.61,1.77-3.32.72-.72,4.25-.96,4.25.42-.03,5.8,5.21,8.46,6.66,12.96,2.12,6.56-1.36,14.21.17,20.93-2.24,1.7-2.84,3.08-4.95,4.2-.08-6.51,1.03-12.29,1.85-18.68-5.15.84-1.7-9.18-6.88-11.27,1.72,4.27,2.63,9.01,2.35,14.23-1.02,19.57-3.32,38.55-6.06,57.96-4.08-.48-6.86-1.35-10.25-2.17-.44-5.7,7.14-18.08,2.66-18.87-.36.52-.83.96-1.42,1.2-.5,5.53-1.57,11.05-3.33,17.03-3.08.58-5.43.43-8.66.06,2.15-3.64,1.78-6.66-.17-9.67-5.32-8.23.4-9.99-4.54-16.49-6.11-8.05.3-15.67.58-23.17.15-3.9-.65-7.47-.29-10.95h-1c-1.29,5.34-.05,11.83-2.52,17.17-1.05-2.95-1.53-5.88-1.66-8.34l-1.05-.09.21,13.39c0,.61.22,1.27.17,1.87l-.15,2c.04.26.79.23,1.01.49.27.32-.06,1.57-.47,1.41-.65-.24-1.2-.88-1.76-.82l5.13,9.22c1.82,3.27,1.51,6.83-.43,9.61l-13.73-12.61c-2.89-2.65-5.9-2.53-8.86-3.56l.04.97c5.29,1.67,9.89,5.08,12.98,9.87-1.21.63-2.03.37-2.78.45-1.11.11-1.27,1.2-1.05,2.12,8.53-.02,11,2.16,15.4,10.7-2.09.27-2.61-1.51-4.76-2.23-1.46,1.12.38,1.5,1.25,3.05-7.39-.8-20.85,10.15-24.28,17.31,5.64.6,15.04-12.07,22.45-14.45,15.87,10.24,3.28,3,18.83,6.2,8.94,1.84,17.88,3.7,26.97,4.19,5.48.29,10.59-4.03,16.26-4.62l13.64-1.42c3.28,3.9,6.7,7.35,11.38,9.86,3.85,2.06,7.4,8.57,3.7,12.07-2.09,1.95-2.69-3.38-3.79-4.35-2.47-2.18-6.55-4.26-8.81-7.44-.29,3.43,2.02,5.12,3.25,7.64,1.25,2.55.29,5.51-2.29,6.27l-3.85-5.3c-1.14,3.18,1.21,4.9.62,7.47-.48,2.07-2.83.71-4.14.46-.74.21-1,2.07-1.6,2.49-1.12.78-2.28-.71-3.4-.85l-14.89-1.82c-3.3-.4-5.67-2.51-8.31-2.77-22.05-2.17-41.77,6.01-64.04,1.63-.97-5.01,2.09-8.85.08-13.79-1.43,1.07-3.47,16.67,1.22,15.96-.85,1.39-4.11,2.56-5.05.48-1.16-2.58-1.23-5.38-3.77-6.97-1.61-1.01-3.07-2.19-3.23-3.9l-1.8.15c-.26,1.17-1.4,3.06.61,4.06,3.18,1.58,3.57,4.55,4.86,7.48,3.27,7.43,13.77,2.78,16.54,3.21.62.1.01,1.4.88,2.49,6.21-2.54,11.88-5.06,18.01-4.41.92-.33,1.34-1.3,2.45-1.15,1.08.14,2.38-.12,2.58,1.2,5-1.15,10.08-2.26,15.15-2.59,2.1-.14,4.56-1.16,6.47.23,3.19-.95,6.37-1.99,9.81-.45,7.12,3.18,14.98,2.27,22.55,3.39,2.21.33,4.3,3.86,8.22,2.16-1.15,2.4-3.05.82-4.34,2.07,1.87,2.6,5.51-.23,7.38.76,3.39,7.24,13.97,4.13,23.81,4.11l105.78-.23c2.42,0,4.06-3.4,4.92-5.23l-17.08-11.83c-1.54-1.07-3.22-2.2-4.81-2.36-.05,1.18.81,2.24,1.85,3.01l14.53,10.7-48.33.7c-11.04.16-21.43-.39-32.52-.13l-42.44,1.01c-2.46.06-3.03-2.66-3.33-4.23-.29-1.55-.1-3.29,1.21-2.81l1.97.73c.18-1.47.71-2.38,1.64-2.11,1.72.51,3.09,1.69,2.34,3.22.65,0,1.32-.02,1.96-.02-.48-.83-1.26-1.9-.87-2.54.3-.47,9.38-1.8,9.2.08-2.18.93-5.04.36-5.24,2.47,2.35,0,4.71.15,7.05.03.09-1.14,0-2.3.35-3.66,3.66-.3,6.82-.24,9.88.64l4.61-.19,40.22-.03,20-.59c5.62-.17,10.9.37,16.35-1.1-1.58-3.34-4.59-4.26-7.35-4.25l-85.11.38c-.61,1.16-.54,2.53-1.36,3.58-.81-1.14-1.34-1.51-1.93-1.53-.3-.01-1.08.68-1.28.43-1.01-1.28.19-2.25.72-2.77.34-.33-.48-1.57.37-1.89.45-.17,1.03.78,1.78.78l86.81-.09c2.29,0,4.61-.05,6.91.17l1.02-24.08c.01-.31.04-.72.03-1-.03-1.04-.49-4.08.92-4.14,11.25-.51,28.83-1.79,37.43,6.05l-21.4,1.54,14.15,1.05c.88.07,2.05.03,2.93-.08,1.94-.24,3.88.88,5.72-.07.62-.32,1.32-.51,1.3.53l-.11,5.12c1.29-1.03,1.53-2.78,2.47-4.46,2.13.66,3.6,2.1,5.22,3.19,3.01-6.4.05,3.37.4,7.27.73-.19.79-.87,1.43-2.07,1.52,1.41.32,2.9-.43,4.07-.61.95.02,2.79-1.64,2.95.07,0-8.56-1.16-4.47-3.48.43-2.37,1.82-1.46,1.41,1.32,1.19-1.12,1.75-3.07,1.7-4.79-1.93.05-3.87-.03-5.79-.23.03.36-.07.9-.21,1.23-.19.44-.77.62-1.12.88-1.84,1.39-3.03,3.37-4.79,5.25-.38.4-1.7-.96-.77-1.15.3-.06.38-.68.67-.98-1.17-.18-2.43-.34-3.07-1.78,1.5-.47,2.37-.13,3.28-.22.03-.29-.03-.79.13-1-.49-.28-.95-.61-1.37-.98-.31-.27-.86-.5-1.04-.91h-.92s-.91,0-.91,0l-.81.04c-.8,3.58-2.5,6.94-6.27,6.54-2.89,2.56-8.3.4-9.01,1.82-.27.53-.12,1.5,1,1.45,13.16-.53,25.95-.79,39.03-1.18l20.9-.62c3.9-.12,8.11,3.95,14.43,5.35,6.06,1.34,12,4.41,18.47,4.07-5.16-6.11-14.59-4.85-20.16-9.42ZM351.63,106.89c-.48,0-.86-.39-.86-.86s.39-.86.86-.86.86.39.86.86-.39.86-.86.86ZM356.41,114.49c-1.43-2.82-.43-5.38-2.72-7.29,2.55,1.37,5.93,3.85,2.72,7.29ZM358.55,103.33c-4.82,0-9.01-3.09-9.02-8.83,4.03,3.46,10.4,3.78,9.02,8.83ZM347.06,89l2.45,5.03c-1.8-1.1-3.34-3.24-2.45-5.03ZM277.13,66.03c-.28,0-.5-.22-.5-.5s.22-.5.5-.5.5.22.5.5-.22.5-.5.5ZM284.92,58.74l5.62-4.67c-1.3,1.82-1.83,3.68-5.62,4.67ZM292.61,53.9c-.47,0-.85-.38-.85-.85s.38-.85.85-.85.85.38.85.85-.38.85-.85.85ZM339.87,62.16c-3.41-2.1-6.83-4.66-7.25-8.13-1.03-.11-2.31.52-3.09-.64,1.44-.71,2.38-.24,3.24-.54-2.13-5.45-8.96-7.89-15.1-7.95l5.77,5.12c-3.36-.2-5.66-2.06-9.29-1.26,5.95,2.67,11.45,5.98,15.38,11.13-3.73-.43-4.73-4.07-8.18-2.79,2.24,2.27,5.33,3.38,5.03,7.34l-17.46-13.64c-.37,4.45,3.99,9,1.72,10.74-1.45,1.11-5.81-7.86-7.75-9.28-1.19,3.74,1.39,6.35-.34,10.19-2.57-3.38-3.44-6.73-4.71-10.66-1.79,1.44-1.33,3.34-3,4.29-.66-1.38-1.53-4.85-.02-5.86,12.35-8.28,28.82-10.55,41.55-2.23,2.69,1.76,5.88,3.39,7.2,7.05-2.89-2.05-4.64-4.84-7.97-5.01-.55,4.44,3.14,6.94,4.29,12.13ZM210.13,38.03c-.28,0-.5-.22-.5-.5s.22-.5.5-.5.5.22.5.5-.22.5-.5.5ZM233.04,115.66c-8.57-5.48-4.67-10.65-8.28-15.99,9.39-1.26,16.84-6.56,23.31-13.5,1.74.51,1.21,2.66,1.35,4.53-2.09,9.97-7.58,18.38-16.38,24.96ZM212.27,35.16c2.38-3.47,10.22-5.1,7.76-5.29,2.21.17,3.58-1.77,5.38-2.84,2.73-1.63,7.04-.69,9.61-2.46,3.25-2.24,4.25,1.91,5.77,2.11,6.89.89,12.22,3,16.09,9.11.47.75,2.92.87,3.37,2.24.21.65.32,1.5-.58,2.28,4.13,6.74-2.16,2.57,1.93,7.73-1.84.25-4.12-1.17-3.88-2.85.29-1.97,1.14-3.51.02-4.87.62-1.44-6.93-8.95-9.79-6.85-.66-1.03-1.17-3.43-2.71-2.64-.76.39-1.68.9-2.92,2.3-1.25-.59-.44-1.88.12-3.38-2.48-1.44-4.99,0-8.12.97-.84.15-.49-2.34-.09-2.9-4.54-1.76-6.11,2.89-8.77,4.62-3.91,2.56-8.6,2.68-11.86,7.2-.9-2.38-2.03-3.45-1.33-4.47ZM242.49,40.03c0,.48-.39.86-.86.86s-.86-.39-.86-.86.39-.86.86-.86.86.39.86.86ZM240.22,37.76c-3.11.51-4.52-1.97-6.62-2.2,2.24-.87,3.49-.75,5.31-1.26.91-.25,2.35,2.98,1.31,3.46ZM211,61.42c.56-6.77,1.4-12.35,5.89-18.1,1.28-1.64,2.23-5.87,5.72-4.6,3.27,1.19,5.05,4.81,8.13,7.17.59-.61-.53-1.55.21-2.99,3.67,1.83,6.22,4.62,9.42,7.24.96-1.87-.9-2.52-.48-4.13,3.02,1.17,4.42,3.64,7.15,6.19,1.34-2.58-.03-4.55-.61-8.5,2.03-1.01,3.86,1.9,3.64,4.15-.42,4.28,1.99,7.61,2.28,11.42,1.43,18.52-5.31,31.04-23.7,35.74-5.47,1.4-8.87-3.24-11.37-6.67-6.05-8.3-7.12-17-6.3-26.92ZM107.13,21.03c.28,0,.5.22.5.5s-.22.5-.5.5-.5-.22-.5-.5.22-.5.5-.5ZM36.13,25.03c-.28,0-.5-.22-.5-.5s.22-.5.5-.5.5.22.5.5-.22.5-.5.5ZM43.13,32.03c-.28,0-.5-.22-.5-.5s.22-.5.5-.5.5.22.5.5-.22.5-.5.5ZM43.79,30.51l-.53-5.47-3.21.52c-.62-1.74-1.71-2.64-3.25-3.08,1.28-2.53,2.33-4.61,5.06-6.59.87,1.75.49,3.38,2.07,4.99,1.03-2.38,2.71-4.47,3.39-6.92-.03-.43-1.68-1.11-1.67-1.47.04-.86,2.5-.3,2.87-.7,8.72-9.55,17.91-6.84,29.85-7.16.04.88-.69,1.91-.11,2.59,14.6.49,16.76,5.75,27.63,13.35l-3.9,1.07c.67.75.96.99,1.22,1.24.52.5.22,1.16-.15,1.2-2.54.23-1.86-2.99-2.93-2.92-.63.05-.97,1.42-2.09,1.96-1.52-10.42-19.77-7.95-15.62-10.16l-.04-1.63c-.55.05-1.13-.06-1.68-.04-.46.5-1.11.76-1.61.76-.88,0-1.83-.3-1.47-1.28-2.99-.36-5.16,2.49-8.04,2.77l-4,.38c1.78-2.96,4.58-3.49,7.52-6.44-1.48-1.62-14.03,1.41-12.23,2.25l-3.12-1.46c.05.02-8.35,2.84-8.05,10.86-1.31-1.1-.17-3.03-2.54-3.48-.3,3.46-1.32,6.33-.42,9.65,2,3.75,12.88-6.86,14.17.13.13.69-1.42.98-2.52,1.52-.67.32-.15-1.28-.77-2.12-4-.67-5.15,3.98-7.64,5.68-1.61.04-4.24-2.8-6.2,0ZM106.33,28.81l-2.77-3.62c1.44.21,2.46.92,2.77,3.62ZM90.62,22.19c-.26,3.56-2.12,4.99-2.57,7.72-.72-3.01-.1-6.62,2.57-7.72ZM86.76,25.03c0,.35-.28.63-.63.63s-.63-.28-.63-.63.28-.63.63-.63.63.28.63.63ZM58.63,10.53c0,.28-.22.5-.5.5s-.5-.22-.5-.5.22-.5.5-.5.5.22.5.5ZM69.75,99.23l-23.98-22.7c3.15-1.24,4.96-1.97,6.41.42,1.83-2.67,1.68-5.73,3.08-8.77,1.26,1.07.86,2.37,1.69,3.65,1.96-1.15,2.11-3.02,3.8-5.54,2.43,3.33,5.19,4.41,8.51,6.24.95.52,1.58-1.35,1.65-2.2.13-1.48-2-1.01-3.29-1.53-6.71-2.65-10.06-11.89-6.84-18.18,1.27-2.49,3.32-3.75,5.35-3.88,7.19-.46,6.86,10.81,8.46,16.43,1.41-.96,3.04-1.99,3.97-3.21,3.23-12.52,4.45-14.12,13.81-23.21.05,3.47-1.61,5.16-1.09,7.81,4.01-5.38,8.15-10.39,10.79-16.81,2.2,4.51,3.34,8.18,4.5,12.51,1.87,6.96-7.34,14.31,1.4,24.74.83.99,1.31,2.44.85,3.49-.37.84-1.64,1.88-2.84,2.01-3.26.36-2.51,4.39-4.18,5.91-2.91,2.64-7.46-1.42-10.15-3.22-1.07-.72-1.82,1.82-1.14,2.15,2.98,1.47,6.32,2.39,9.62,4.34-3.75,3.88-5.73,7.5-7.01,12.24-7.91-.88-13.52-4.53-19.34-8.7,2.28,7.97.28,9.53-4.03,16.01ZM183.63,146.03c.99.6,2.65-.63,2.99.44.11.34.11,1.11-.43,1.52-.81.62-1.9-.71-2.56-.97-3.4-.22-5.82.44-9.12-.35,3.06-1.61,6.31-2.35,9.12-.65ZM107.07,140.39c5.53-6.58-2.07-15.52,5.15-24.66,2.74-3.47,2.49-9.4,4.44-12.53,3.44-1.12,5.64,4.6,4.06,7.64-1.12,2.17-1.91,4.29-1.29,6.65,3.11,1.84,35.83-14.42,29.19-6.47-.05.62-.04,1.22.73,1.04,2.48.44,5.15-1.4,7.94-.46,1.59.53,1.58,2.42.34,3.06-.95.49-1.96,1.09-3.03,1.37-2.04.54-3.34,2.12-4.85,3.42v.56c1.97-1.04,5.13-2.27,7.95-.85-7.19,6.85-15.29,11.27-21.38,18.61-2.99,3.61-8.53,3.99-11.35,6.83-8.91,8.98-13.97,20.86-21.91,31.41-6.61-.33-10.56-14.65-10.99-21.17,5.22-4.9,10.38-8.97,14.99-14.45ZM89.12,191.75c-.94-.8,1.32-1.53.79-3.27-2.17,1.32-3.82,2.19-5.3,1.53-2.82-1.26-4.44-2.85-4.02-5.98,1.97-14.94-1.33-23.4,9.79-32.97.62,12.19,1.35,26.37,15.57,30.56-2.3,7.58-8.76,9.93-16.83,10.13ZM104.95,192c1.06-4.37,3.9-7.72,6.29-11.36,2.1-3.21-1.19-8.14.35-11.49,2.48-5.38,6.35-9.57,10.24-14.67l1.42,36.31-18.3,1.21ZM124.67,152.14c1.98,6.13.66,11.49.96,16.9.42,7.75-1.01,14.72,1.41,22.2-.62,1.26-2,.34-2.24-.46l-.17-21.74c-.75-5.59-2.16-10.94.04-16.9ZM123.92,193.29c5.97.87,10.62,2.44,15.93,5.99-6.08,3.48-13.29-.42-15.93-5.99ZM136.63,218.17c-.35,0-.63-.28-.63-.63s.28-.63.63-.63.63.28.63.63-.28.63-.63.63ZM139.13,210.03c-.28,0-.5-.22-.5-.5s.22-.5.5-.5.5.22.5.5-.22.5-.5.5ZM230.35,207.15l-88.67.12c-2.57.11-4.08-1.66-3.78-3.79,6.22-1.3,19.8,1.41,22.77-2.49l.11-34.96c0-1.96-2.69-2.3-4.12-2.29l-20.03.28v2l19.03-.43c1.23-.03,2.31,0,2.83,1.07.28.57-.03,1.49-.04,2.29.07.45.99.91.98,1.6,0,.54-.4,1.07-.8,1.47l-.2,28.16-15.81.18c-1.47.02-1.11-3.59-1.99-4.13-.76-.36-3.54.27-3.67-1.37-.59-7.46-.35-14.61-.15-21.65-.76.16-1.49.44-2.18.81l.08,19.97c-2.02.27-5.18-.45-5.19-2.85l-.07-32.67,101.1-.06-.2,48.73ZM229.49,151.11l-102.93-.46,56.02-.65c4.09-1.9,8-.26,12.11-.22l37.82.39c.91,0,2.13.82,3.01,1.56-2.21.98-3.71-.61-6.03-.62ZM305.01,118.96c1.05,1.07.93,2.43.04,5.05-.71-1.43-.71-3.02-.04-5.05ZM304.15,125.01c1.04,1.69.87,4.14-1.35,5.1-.72-2.17.44-3.14,1.35-5.1ZM296.65,145.96c.81-4.02,1.24-9.74,5.24-12.03,1.62,2.25,3.67,5.65,8.33,3.85-.66,13.24-2.23,33.73,3.41,46.23-8.84,1.38-7.53-18.74-11.35-24.04l.32,15.42c-2.74-3.61-1.85-8.17-3.64-11.96-2.68-5.67-3.62-11.04-2.32-17.48ZM288.07,201.01c-.79-1.05-.6-2.28-.18-4.06,1.16.57,1.07,1.7.18,4.06ZM289.42,192.28c-7.02-1-16.27-4.71-19.94-11.27-.05-.46.29-.98.33-2.16.11-3.82-3.35-6.81-7.09-6.9,1.67,3.31,5.84,3.92,5.63,8.38-4.06-2.89-7.66-5.58-9.79-10.21,1.83.59,2.64,1.8,4.16,1.84-1.83-3.62-5.96-5.09-6.61-10.35,3.01,1.08,4.09,2.95,6.54,4.38.42-.06,1.54.17,1.06-.7-1.48-1.39-10.75-9.53-9.6-10.48,3.18-2.63,15.87,11.41,34.93,11.67,4.13.06-4.31-10.7-1.41-11.98,6.74,2.51,9.73,9.03,10.88,15.75l1.18,6.93c-5.02,3.4-7.62,9.67-10.25,15.1ZM296.95,202.68c-2.56-3.72-1.62-8.38-.47-11.65,0-2.22.79-3.23.89-5.1-2.53,2.43-4.62,5.18-3.98,9.05-.72-.34-1.69-.96-1.69-1.5,0-.93,5.47-15.2,10.2-13.57,1.18.41,2.4.99,3.53,2.59-3.56,2.09-5.55,5.33-7.69,8.52-2.63,3.91.05,7.03-.79,11.65ZM310.15,205.66l-9.36-5.01c-.77-5.77,1.68-11.93,6.72-15.43l11.86,4.27c-.67,6.71-.17,12.94,2.1,19.62-4.2.26-7.74-1.53-11.32-3.45Z"/>
  </g>
</svg>